<?xml version="1.0" encoding="UTF-8" standalone="no"?> <!-- Created with Vectornator for iOS (http://vectornator.io/) --><!DOCTYPE svg PUBLIC "-//W3C//DTD SVG 1.1//EN" "http://www.w3.org/Graphics/SVG/1.1/DTD/svg11.dtd">
<svg height="100%" style="fill-rule:nonzero;clip-rule:evenodd;stroke-linecap:round;stroke-linejoin:round;" xmlns:xlink="http://www.w3.org/1999/xlink" xmlns="http://www.w3.org/2000/svg" xml:space="preserve" width="100%" xmlns:vectornator="http://vectornator.io" version="1.1" viewBox="0 0 1400 980">
<metadata>
<vectornator:setting key="DimensionsVisible" value="1"/>
<vectornator:setting key="PencilOnly" value="0"/>
<vectornator:setting key="SnapToPoints" value="0"/>
<vectornator:setting key="OutlineMode" value="0"/>
<vectornator:setting key="CMYKEnabledKey" value="0"/>
<vectornator:setting key="RulersVisible" value="1"/>
<vectornator:setting key="SnapToEdges" value="0"/>
<vectornator:setting key="GuidesVisible" value="1"/>
<vectornator:setting key="DisplayWhiteBackground" value="0"/>
<vectornator:setting key="doHistoryDisabled" value="0"/>
<vectornator:setting key="SnapToGuides" value="1"/>
<vectornator:setting key="TimeLapseWatermarkDisabled" value="0"/>
<vectornator:setting key="Units" value="Points"/>
<vectornator:setting key="DynamicGuides" value="0"/>
<vectornator:setting key="IsolateActiveLayer" value="0"/>
<vectornator:setting key="SnapToGrid" value="0"/>
</metadata>
<defs>
<path id="TextPath" d="M335.2+366.8C335.2+366.8+677.3+257.9+1071.2+366.8M335.2+366.8C335.2+366.8+677.3+257.9+1071.2+366.8" transform="matrix(1 -0 -0 1 0 0)"/>
<path id="TextPath_2" d="M344.654+382.647C344.654+382.647+516.276+336.835+686.297+338.79C912.493+341.392+1057.36+382.072+1057.36+382.072M344.654+382.647C344.654+382.647+516.276+336.835+686.297+338.79C912.493+341.392+1057.36+382.072+1057.36+382.072" transform="matrix(1 -0 -0 1 0.865911 9.03074)"/>
</defs>
<g id="Untitled" vectornator:layerName="Untitled">
<g opacity="1">
<path d="M0+801.2L1400+801.2L1400+801.2L1400+981.8L1400+981.8L0+981.8L0+981.8L0+801.2L0+801.2Z" opacity="1" fill="#c3c5c1"/>
<g opacity="1">
<path d="M762+414L777.1+414L777.1+414L777.1+701.8L777.1+701.8L762+701.8L762+701.8L762+414L762+414Z" opacity="1" fill="#c39e6c"/>
<path d="M683.4+422.7C683.4+348.031+721.948+287.5+769.5+287.5C817.052+287.5+855.6+348.031+855.6+422.7C855.6+497.369+817.052+557.9+769.5+557.9C721.948+557.9+683.4+497.369+683.4+422.7Z" opacity="1" fill="#69b26d"/>
<path d="M747+319.5C729.1+319.5+712.5+328.9+699.3+344.6C689.4+366.6+683.5+393.6+683.5+422.7C683.5+497.4+722+557.9+769.6+557.9C773.2+557.9+776.8+557.5+780.3+556.9C807.4+537.2+826.2+494+826.2+444C826.2+375.2+790.7+319.5+747+319.5Z" opacity="1" fill="#589f5d"/>
<path d="M763.5+376.8C763.5+368.405+766.186+361.6+769.5+361.6C772.814+361.6+775.5+368.405+775.5+376.8C775.5+385.195+772.814+392+769.5+392C766.186+392+763.5+385.195+763.5+376.8Z" opacity="1" fill="#69b26d"/>
<path d="M709.8+398.8C709.8+390.405+712.486+383.6+715.8+383.6C719.114+383.6+721.8+390.405+721.8+398.8C721.8+407.195+719.114+414+715.8+414C712.486+414+709.8+407.195+709.8+398.8Z" opacity="1" fill="#69b26d"/>
<path d="M721.7+500.3C721.7+491.905+724.386+485.1+727.7+485.1C731.014+485.1+733.7+491.905+733.7+500.3C733.7+508.695+731.014+515.5+727.7+515.5C724.386+515.5+721.7+508.695+721.7+500.3Z" opacity="1" fill="#69b26d"/>
<path d="M790.2+469.1C790.2+460.705+792.886+453.9+796.2+453.9C799.514+453.9+802.2+460.705+802.2+469.1C802.2+477.495+799.514+484.3+796.2+484.3C792.886+484.3+790.2+477.495+790.2+469.1Z" opacity="1" fill="#69b26d"/>
<path d="M748.8+448C748.8+439.605+751.486+432.8+754.8+432.8C758.114+432.8+760.8+439.605+760.8+448C760.8+456.395+758.114+463.2+754.8+463.2C751.486+463.2+748.8+456.395+748.8+448Z" opacity="1" fill="#69b26d"/>
</g>
<path d="M0+661.4L1400+661.4L1400+661.4L1400+811L1400+811L0+811L0+811L0+661.4L0+661.4Z" opacity="1" fill="#74c044"/>
<path d="M1205.4+170.9C1199.3+164.5+1194.2+162.9+1190+163.4C1187.9+155.7+1179.3+150+1168.9+150C1158.6+150+1150+155.7+1147.9+163.3C1128+159.9+1122.8+184.1+1122.8+184.1L1221.7+184.1C1226.3+166.3+1205.4+170.9+1205.4+170.9Z" opacity="1" fill="#f4faf6"/>
<g opacity="1">
<path d="M-6.2+434.3L6.1+434.3L6.1+434.3L6.1+670L6.1+670L-6.2+670L-6.2+670L-6.2+434.3L-6.2+434.3Z" opacity="1" fill="#c39e6c"/>
<path d="M-70.5+441.4C-70.5+380.262-38.9361+330.7+0+330.7C38.9361+330.7+70.5+380.262+70.5+441.4C70.5+502.538+38.9361+552.1+0+552.1C-38.9361+552.1-70.5+502.538-70.5+441.4Z" opacity="1" fill="#69b26d"/>
<path d="M-18.5+356.9C-33.2+356.9-46.7+364.6-57.6+377.5C-65.7+395.6-70.5+417.6-70.5+441.4C-70.5+502.5-38.9+552.1+1.90735e-06+552.1C3+552.1+5.9+551.8+8.8+551.2C31+535+46.4+499.7+46.4+458.7C46.4+402.5+17.3+356.9-18.5+356.9Z" opacity="1" fill="#589f5d"/>
<path d="M-4.9+403.8C-4.9+396.952-2.7062+391.4+0+391.4C2.7062+391.4+4.9+396.952+4.9+403.8C4.9+410.648+2.7062+416.2+0+416.2C-2.7062+416.2-4.9+410.648-4.9+403.8Z" opacity="1" fill="#69b26d"/>
<path d="M-48.9+421.8C-48.9+414.952-46.7062+409.4-44+409.4C-41.2938+409.4-39.1+414.952-39.1+421.8C-39.1+428.648-41.2938+434.2-44+434.2C-46.7062+434.2-48.9+428.648-48.9+421.8Z" opacity="1" fill="#69b26d"/>
<path d="M-39.2+504.9C-39.2+498.052-37.0062+492.5-34.3+492.5C-31.5938+492.5-29.4+498.052-29.4+504.9C-29.4+511.748-31.5938+517.3-34.3+517.3C-37.0062+517.3-39.2+511.748-39.2+504.9Z" opacity="1" fill="#69b26d"/>
<path d="M16.9+479.4C16.9+472.552+19.0938+467+21.8+467C24.5062+467+26.7+472.552+26.7+479.4C26.7+486.248+24.5062+491.8+21.8+491.8C19.0938+491.8+16.9+486.248+16.9+479.4Z" opacity="1" fill="#69b26d"/>
<path d="M-17+462C-17+455.152-14.8062+449.6-12.1+449.6C-9.39381+449.6-7.2+455.152-7.2+462C-7.2+468.848-9.39381+474.4-12.1+474.4C-14.8062+474.4-17+468.848-17+462Z" opacity="1" fill="#69b26d"/>
</g>
<path d="M435.2+725.2L1106+725.2C1102.9+713.9+1092.5+705.6+1080.2+705.6C1073.9+705.6+1068.2+707.8+1063.6+711.4C1055.1+688.4+1032.9+672+1007+672C1000.6+672+994.5+673+988.8+674.8C989.2+671.9+989.4+669+989.4+666C989.4+629.3+959.7+599.6+923+599.6C903.1+599.6+885.2+608.4+873+622.3C863.9+608.4+848.1+599.1+830.2+599.1C827.5+599.1+824.8+599.3+822.2+599.7C822.1+566.5+795.1+539.5+761.8+539.5C733.2+539.5+709.2+559.4+703+586.1C692.3+576.4+678.1+570.5+662.5+570.5C643.3+570.5+626.2+579.5+615.1+593.5C612.2+581.9+601.7+573.2+589.1+573.2C574.3+573.2+562.3+585.2+562.3+600C562.3+606.5+564.6+612.4+568.5+617.1C551.8+619.4+537.7+629.9+530.2+644.3C521.8+639.8+512.1+637.3+501.9+637.3C476.4+637.3+454.7+653.1+445.8+675.3C432.2+676.6+421.7+688+421.7+701.9C421.5+711.9+427+720.6+435.2+725.2ZM721.1+644.7C722.1+645.6+723.1+646.5+724.2+647.3L720.5+647.3C720.7+646.4+720.9+645.5+721.1+644.7ZM602.4+623C602.4+623.3+602.3+623.7+602.3+624C602+623.8+601.8+623.7+601.5+623.5C601.7+623.4+602.1+623.2+602.4+623Z" opacity="1" fill="#bac855"/>
<g opacity="1">
<g opacity="1">
<path d="M331+177.3L68.1+401L68.1+725.1L593.9+725.1L593.9+401L331+177.3Z" opacity="1" fill="#93b2b6"/>
<path d="M57.8+664.9L604.3+664.9L604.3+664.9L604.3+725.2L604.3+725.2L57.8+725.2L57.8+725.2L57.8+664.9L57.8+664.9Z" opacity="1" fill="#75817e"/>
<path d="M268.6+450.2L393.3+450.2L393.3+450.2L393.3+664.8L393.3+664.8L268.6+664.8L268.6+664.8L268.6+450.2L268.6+450.2Z" opacity="1" fill="#825735"/>
<g opacity="1">
<g opacity="1">
<path d="M436.4+461.8L522.1+461.8L522.1+461.8L522.1+569.3L522.1+569.3L436.4+569.3L436.4+569.3L436.4+461.8L436.4+461.8Z" opacity="1" fill="#4eb3b0"/>
<path d="M436.4+487L522.2+540.8L522.2+560.7L436.4+493.2L436.4+487Z" opacity="1" fill="#a4c7b1"/>
<path d="M436.4+498.1L522.2+566L522.2+569.3L516.6+569.3L436.4+503.7L436.4+498.1Z" opacity="1" fill="#a4c7b1"/>
<path d="M525.3+572.4L433.3+572.4L433.3+458.7L525.3+458.7L525.3+572.4ZM439.6+566.2L519+566.2L519+464.9L439.5+464.9L439.5+566.2L439.6+566.2Z" opacity="1" fill="#9c7a53"/>
</g>
<g opacity="1">
<path d="M139.8+461.8L225.5+461.8L225.5+461.8L225.5+569.3L225.5+569.3L139.8+569.3L139.8+569.3L139.8+461.8L139.8+461.8Z" opacity="1" fill="#4eb3b0"/>
<path d="M139.8+487L225.6+540.8L225.6+560.7L139.8+493.2L139.8+487Z" opacity="1" fill="#a4c7b1"/>
<path d="M139.8+498.1L225.6+566L225.6+569.3L220+569.3L139.8+503.7L139.8+498.1Z" opacity="1" fill="#a4c7b1"/>
<path d="M228.7+572.4L136.7+572.4L136.7+458.7L228.7+458.7L228.7+572.4ZM142.9+566.2L222.4+566.2L222.4+464.9L142.9+464.9L142.9+566.2Z" opacity="1" fill="#9c7a53"/>
</g>
</g>
<path d="M68.1+450.2L345.6+222.6L593.9+435.5L603.9+401.9L331+177.3L68.1+401L68.1+450.2Z" opacity="1" fill="#93b2b6"/>
<path d="M560.6+348.1L560.6+348.1L569.4+345.3L491.8+286.4L501.2+284.5L423.4+224.9L430.2+221.8L331+141.9L231.7+221.8L238.6+224.9L160.8+284.5L170.2+286.4L92.6+345.3L101.4+348.1L101.4+348.1L14.4+415.9L53.8+435.5L331+196.1L608.2+435.5L647.6+415.9L560.6+348.1Z" opacity="1" fill="#4b6c7c"/>
<path d="M268.6+450.2L276.8+450.2L276.8+450.2L276.8+664.8L276.8+664.8L268.6+664.8L268.6+664.8L268.6+450.2L268.6+450.2Z" opacity="0.48" fill="#825735"/>
</g>
<path d="M376.4+576.4C376.4+574.191+378.191+572.4+380.4+572.4C382.609+572.4+384.4+574.191+384.4+576.4C384.4+578.609+382.609+580.4+380.4+580.4C378.191+580.4+376.4+578.609+376.4+576.4Z" opacity="1" fill="#592722"/>
</g>
<g opacity="1">
<path d="M1250.5+350.4L1268.3+350.4L1268.3+350.4L1268.3+690.1L1268.3+690.1L1250.5+690.1L1250.5+690.1L1250.5+350.4L1250.5+350.4Z" opacity="1" fill="#c39e6c"/>
<path d="M1157.8+360.6C1157.8+272.455+1203.29+201+1259.4+201C1315.51+201+1361+272.455+1361+360.6C1361+448.745+1315.51+520.2+1259.4+520.2C1203.29+520.2+1157.8+448.745+1157.8+360.6Z" opacity="1" fill="#69b26d"/>
<path d="M1232.8+238.8C1211.6+238.8+1192.1+249.9+1176.5+268.5C1164.8+294.5+1157.9+326.3+1157.9+360.6C1157.9+448.8+1203.4+520.2+1259.5+520.2C1263.8+520.2+1268+519.8+1272.1+519C1304.1+495.7+1326.3+444.8+1326.3+385.7C1326.3+304.6+1284.4+238.8+1232.8+238.8Z" opacity="1" fill="#589f5d"/>
<path d="M1252.4+306.5C1252.4+296.614+1255.53+288.6+1259.4+288.6C1263.27+288.6+1266.4+296.614+1266.4+306.5C1266.4+316.386+1263.27+324.4+1259.4+324.4C1255.53+324.4+1252.4+316.386+1252.4+306.5Z" opacity="1" fill="#69b26d"/>
<path d="M1189+332.4C1189+322.514+1192.13+314.5+1196+314.5C1199.87+314.5+1203+322.514+1203+332.4C1203+342.286+1199.87+350.3+1196+350.3C1192.13+350.3+1189+342.286+1189+332.4Z" opacity="1" fill="#69b26d"/>
<path d="M1203+452.2C1203+442.314+1206.13+434.3+1210+434.3C1213.87+434.3+1217+442.314+1217+452.2C1217+462.086+1213.87+470.1+1210+470.1C1206.13+470.1+1203+462.086+1203+452.2Z" opacity="1" fill="#69b26d"/>
<path d="M1283.8+415.4C1283.8+405.514+1286.93+397.5+1290.8+397.5C1294.67+397.5+1297.8+405.514+1297.8+415.4C1297.8+425.286+1294.67+433.3+1290.8+433.3C1286.93+433.3+1283.8+425.286+1283.8+415.4Z" opacity="1" fill="#69b26d"/>
<path d="M1235+390.4C1235+380.514+1238.13+372.5+1242+372.5C1245.87+372.5+1249+380.514+1249+390.4C1249+400.286+1245.87+408.3+1242+408.3C1238.13+408.3+1235+400.286+1235+390.4Z" opacity="1" fill="#69b26d"/>
</g>
<g opacity="1">
<g opacity="1">
<g opacity="1">
<path d="M1117.6+171.3L854.7+395L854.7+719.1L1380.5+719.1L1380.5+395L1117.6+171.3Z" opacity="1" fill="#f7ca79"/>
<path d="M936.4+691.8L1085.5+691.8L1085.5+691.8L1085.5+719.2L1085.5+719.2L936.4+719.2L936.4+719.2L936.4+691.8L936.4+691.8Z" opacity="1" fill="#75817e"/>
<path d="M948.6+477.6L1073.3+477.6L1073.3+477.6L1073.3+692.2L1073.3+692.2L948.6+692.2L948.6+692.2L948.6+477.6L948.6+477.6Z" opacity="1" fill="#724f33"/>
<g opacity="1">
<path d="M902.2+474.9L936.3+474.9L936.3+474.9L936.3+668.2L936.3+668.2L902.2+668.2L902.2+668.2L902.2+474.9L902.2+474.9Z" opacity="1" fill="#4eb3b0"/>
<path d="M902.2+520.3L936.3+616.9L936.3+652.8L902.2+531.5L902.2+520.3Z" opacity="1" fill="#a4c7b1"/>
<path d="M902.2+540.3L936.3+662.3L936.3+668.2L934.1+668.2L902.2+550.2L902.2+540.3Z" opacity="1" fill="#a4c7b1"/>
<path d="M938.7+668.2L898.4+668.2L898.4+474.9L938.7+474.9L938.7+668.2ZM902.4+662.6L935.1+662.6L935.1+480.4L902.4+480.4L902.4+662.6Z" opacity="1" fill="#9c7a53"/>
</g>
<g opacity="1">
<path d="M1082.7+474.9L1116.8+474.9L1116.8+474.9L1116.8+668.2L1116.8+668.2L1082.7+668.2L1082.7+668.2L1082.7+474.9L1082.7+474.9Z" opacity="1" fill="#4eb3b0"/>
<path d="M1082.7+520.3L1116.8+616.9L1116.8+652.8L1082.7+531.5L1082.7+520.3Z" opacity="1" fill="#a4c7b1"/>
<path d="M1082.7+540.3L1116.8+662.3L1116.8+668.2L1114.6+668.2L1082.7+550.2L1082.7+540.3Z" opacity="1" fill="#a4c7b1"/>
<path d="M1119.2+668.2L1079+668.2L1079+474.9L1119.3+474.9L1119.3+668.2L1119.2+668.2ZM1082.9+662.6L1115.6+662.6L1115.6+480.4L1082.9+480.4L1082.9+662.6Z" opacity="1" fill="#9c7a53"/>
</g>
<path d="M854.7+444.2L1132.2+216.6L1380.5+429.5L1390.5+395.9L1117.6+171.3L854.7+395L854.7+444.2Z" opacity="1" fill="#ffe7ab"/>
<path d="M1347.2+342.1L1347.2+342.1L1356+339.3L1278.4+280.4L1287.8+278.5L1210+218.9L1216.8+215.8L1117.6+135.9L1018.3+215.8L1025.2+218.9L947.4+278.5L956.8+280.4L879.2+339.3L888+342.1L888+342.1L801+409.9L840.4+429.5L1117.6+190.1L1394.8+429.5L1434.2+409.9L1347.2+342.1Z" opacity="1" fill="#f15722"/>
<path d="M948.6+477.6L956.8+477.6L956.8+477.6L956.8+692.2L956.8+692.2L948.6+692.2L948.6+692.2L948.6+477.6L948.6+477.6Z" opacity="0.48" fill="#724f33"/>
<path d="M910.7+704.1L1111.1+704.1L1111.1+704.1L1111.1+719.2L1111.1+719.2L910.7+719.2L910.7+719.2L910.7+704.1L910.7+704.1Z" opacity="1" fill="#66716f"/>
</g>
<path d="M1055.3+600C1055.3+597.791+1057.09+596+1059.3+596C1061.51+596+1063.3+597.791+1063.3+600C1063.3+602.209+1061.51+604+1059.3+604C1057.09+604+1055.3+602.209+1055.3+600Z" opacity="1" fill="#592722"/>
</g>
<g opacity="1">
<path d="M1208+474.4L1301.3+474.4L1301.3+474.4L1301.3+598.9L1301.3+598.9L1208+598.9L1208+598.9L1208+474.4L1208+474.4Z" opacity="1" fill="#786e3a"/>
<g opacity="1">
<path d="M1213.8+479.5L1251.6+479.5L1251.6+479.5L1251.6+534.2L1251.6+534.2L1213.8+534.2L1213.8+534.2L1213.8+479.5L1213.8+479.5Z" opacity="1" fill="#7cd0e3"/>
<path d="M1213.8+539.1L1251.6+539.1L1251.6+539.1L1251.6+593.8L1251.6+593.8L1213.8+593.8L1213.8+593.8L1213.8+539.1L1213.8+539.1Z" opacity="1" fill="#7cd0e3"/>
<path d="M1257.8+479.5L1295.6+479.5L1295.6+479.5L1295.6+534.2L1295.6+534.2L1257.8+534.2L1257.8+534.2L1257.8+479.5L1257.8+479.5Z" opacity="1" fill="#7cd0e3"/>
<path d="M1257.8+539.1L1295.6+539.1L1295.6+539.1L1295.6+593.8L1295.6+593.8L1257.8+593.8L1257.8+593.8L1257.8+539.1L1257.8+539.1Z" opacity="1" fill="#7cd0e3"/>
</g>
<path d="M1192.8+597.4L1316.5+597.4L1316.5+597.4L1316.5+606.1L1316.5+606.1L1192.8+606.1L1192.8+606.1L1192.8+597.4L1192.8+597.4Z" opacity="1" fill="#595127"/>
<path d="M1240.6+479.5L1213.8+534.2L1221.8+534.2L1242.5+479.5L1240.6+479.5Z" opacity="1" fill="#a9dee5"/>
<path d="M1289.1+539.1L1262.3+593.8L1270.3+593.8L1291+539.1L1289.1+539.1Z" opacity="1" fill="#a9dee5"/>
<path d="M1245.1+479.5L1228.2+534.2L1232.7+534.2L1246.4+479.5L1245.1+479.5Z" opacity="1" fill="#a9dee5"/>
<path d="M1285.3+539.1L1257.8+589.3L1257.8+576.2L1282.9+539.1L1285.3+539.1Z" opacity="1" fill="#a9dee5"/>
</g>
<g opacity="1">
<path d="M1075.6+343.6C1075.6+320.404+1094.4+301.6+1117.6+301.6C1140.8+301.6+1159.6+320.404+1159.6+343.6C1159.6+366.796+1140.8+385.6+1117.6+385.6C1094.4+385.6+1075.6+366.796+1075.6+343.6Z" opacity="1" fill="#9c7a53"/>
<path d="M1082.8+343.6C1082.8+324.381+1098.38+308.8+1117.6+308.8C1136.82+308.8+1152.4+324.381+1152.4+343.6C1152.4+362.82+1136.82+378.4+1117.6+378.4C1098.38+378.4+1082.8+362.82+1082.8+343.6Z" opacity="1" fill="#4eb3b0"/>
<path d="M1129.4+310.9L1091.2+366.2C1092.9+368.2+1094.8+370+1097+371.6L1132.8+312.3C1131.6+311.7+1130.5+311.3+1129.4+310.9Z" opacity="1" fill="#a4c7b1"/>
<path d="M1109+377.3C1111.8+378+1114.6+378.4+1117.6+378.4C1119.4+378.4+1121.1+378.3+1122.9+378L1141.5+318.3C1140.1+316.9+1138.5+315.7+1136.8+314.6L1109+377.3Z" opacity="1" fill="#a4c7b1"/>
</g>
</g>
<path d="M591.9+267.9C588.2+264+585.1+263.1+582.6+263.4C581.3+258.7+576.1+255.3+569.8+255.3C563.6+255.3+558.4+258.7+557+263.4C544.9+261.3+541.8+276+541.8+276L601.8+276C604.5+265.1+591.9+267.9+591.9+267.9Z" opacity="1" fill="#f4faf6"/>
<path d="M50.3+230.8C44.9+225.1+40.4+223.7+36.7+224.2C34.9+217.4+27.2+212.3+18.1+212.3C9+212.3+1.4+217.3-0.500002+224C-18.1+221-22.7+242.4-22.7+242.4L64.8+242.4C68.7+226.8+50.3+230.8+50.3+230.8Z" opacity="1" fill="#f4faf6"/>
<path d="M418.7+105.1C418.7+63.4577+452.458+29.7+494.1+29.7C535.742+29.7+569.5+63.4577+569.5+105.1C569.5+146.742+535.742+180.5+494.1+180.5C452.458+180.5+418.7+146.742+418.7+105.1Z" opacity="1" fill="#f9d753"/>
<g opacity="1">
<path d="M47.2+636.5L54.5+636.5L54.5+636.5L54.5+702.3L54.5+702.3L47.2+702.3L47.2+702.3L47.2+636.5L47.2+636.5Z" opacity="1" fill="#c39e6c"/>
<g opacity="1">
<path d="M-0.600002+600.6C-0.600002+570.721+22.4126+546.5+50.8+546.5C79.1874+546.5+102.2+570.721+102.2+600.6C102.2+630.479+79.1874+654.7+50.8+654.7C22.4126+654.7-0.600002+630.479-0.600002+600.6Z" opacity="1" fill="#69b26d"/>
<path d="M37.4+559.3C26.7+559.3+16.8+563+8.9+569.4C3+578.2-0.499998+589-0.499998+600.6C-0.499998+630.5+22.5+654.7+50.9+654.7C53.1+654.7+55.2+654.6+57.3+654.3C73.5+646.4+84.7+629.2+84.7+609.1C84.7+581.6+63.5+559.3+37.4+559.3Z" opacity="1" fill="#589f5d"/>
<path d="M47.2+582.2C47.2+578.831+48.8118+576.1+50.8+576.1C52.7882+576.1+54.4+578.831+54.4+582.2C54.4+585.569+52.7882+588.3+50.8+588.3C48.8118+588.3+47.2+585.569+47.2+582.2Z" opacity="1" fill="#69b26d"/>
<path d="M15.1+591C15.1+587.631+16.7118+584.9+18.7+584.9C20.6882+584.9+22.3+587.631+22.3+591C22.3+594.369+20.6882+597.1+18.7+597.1C16.7118+597.1+15.1+594.369+15.1+591Z" opacity="1" fill="#69b26d"/>
<path d="M22.3+631.6C22.3+628.231+23.9118+625.5+25.9+625.5C27.8882+625.5+29.5+628.231+29.5+631.6C29.5+634.969+27.8882+637.7+25.9+637.7C23.9118+637.7+22.3+634.969+22.3+631.6Z" opacity="1" fill="#69b26d"/>
<path d="M63.1+619.1C63.1+615.731+64.7118+613+66.7+613C68.6882+613+70.3+615.731+70.3+619.1C70.3+622.469+68.6882+625.2+66.7+625.2C64.7118+625.2+63.1+622.469+63.1+619.1Z" opacity="1" fill="#69b26d"/>
<path d="M38.5+610.7C38.5+607.331+40.1118+604.6+42.1+604.6C44.0882+604.6+45.7+607.331+45.7+610.7C45.7+614.069+44.0882+616.8+42.1+616.8C40.1118+616.8+38.5+614.069+38.5+610.7Z" opacity="1" fill="#69b26d"/>
</g>
<path d="M52.2+678.8L13.9+678.8L27.5+732.3L52.2+732.3L76.8+732.3L90.4+678.8L52.2+678.8Z" opacity="1" fill="#b94a3b"/>
<path d="M13.9+678.8L90.4+678.8L90.4+678.8L90.4+689L90.4+689L13.9+689L13.9+689L13.9+678.8L13.9+678.8Z" opacity="1" fill="#702518"/>
</g>
<path d="M413.7+88.1C405.9+79.8+399.2+77.8+393.9+78.5C391.2+68.6+380+61.2+366.7+61.2C353.4+61.2+342.3+68.5+339.5+78.3C313.8+73.9+307.1+105.1+307.1+105.1L434.9+105.1C440.6+82.3+413.7+88.1+413.7+88.1Z" opacity="1" fill="#f4faf6"/>
<path d="M944.7+80.4C941.6+77.1+938.9+76.3+936.8+76.6C935.7+72.7+931.3+69.7+926+69.7C920.7+69.7+916.3+72.6+915.2+76.5C905+74.8+902.3+87.1+902.3+87.1L953+87.1C955.4+78.1+944.7+80.4+944.7+80.4Z" opacity="1" fill="#f4faf6"/>
<g opacity="1">
<path d="M-88.1+780.5L1443+780.5L1443+780.5L1443+785.5L1443+785.5L-88.1+785.5L-88.1+785.5L-88.1+780.5L-88.1+780.5Z" opacity="1" fill="#9e6e20"/>
<path d="M-88.1+706.5L1443+706.5L1443+706.5L1443+711.5L1443+711.5L-88.1+711.5L-88.1+711.5L-88.1+706.5L-88.1+706.5Z" opacity="1" fill="#9e6e20"/>
<g opacity="1">
<path d="M-84.6+811L-122+811L-122+666.7C-122+656.4-113.6+648-103.3+648L-103.3+648C-93+648-84.6+656.4-84.6+666.7L-84.6+811Z" opacity="1" fill="#daac66"/>
<path d="M-30.2+811L-67.6+811L-67.6+666.7C-67.6+656.4-59.2+648-48.9+648L-48.9+648C-38.6+648-30.2+656.4-30.2+666.7L-30.2+811Z" opacity="1" fill="#daac66"/>
<path d="M24.3+811L-13.1+811L-13.1+666.7C-13.1+656.4-4.7+648+5.6+648L5.6+648C15.9+648+24.3+656.4+24.3+666.7L24.3+811Z" opacity="1" fill="#daac66"/>
<path d="M78.7+811L41.3+811L41.3+666.7C41.3+656.4+49.7+648+60+648L60+648C70.3+648+78.7+656.4+78.7+666.7C78.7+666.7+78.7+811+78.7+811Z" opacity="1" fill="#daac66"/>
<path d="M133.1+811L95.8+811L95.8+666.7C95.8+656.4+104.2+648+114.5+648L114.5+648C124.8+648+133.2+656.4+133.2+666.7L133.2+811L133.1+811Z" opacity="1" fill="#daac66"/>
<path d="M187.6+811L150.2+811L150.2+666.7C150.2+656.4+158.6+648+168.9+648L168.9+648C179.2+648+187.6+656.4+187.6+666.7L187.6+811Z" opacity="1" fill="#daac66"/>
<path d="M242+811L204.6+811L204.6+666.7C204.6+656.4+213+648+223.3+648L223.3+648C233.6+648+242+656.4+242+666.7L242+811Z" opacity="1" fill="#daac66"/>
<path d="M296.4+811L259+811L259+666.7C259+656.4+267.4+648+277.7+648L277.7+648C288+648+296.4+656.4+296.4+666.7L296.4+811Z" opacity="1" fill="#daac66"/>
<path d="M350.9+811L313.5+811L313.5+666.7C313.5+656.4+321.9+648+332.2+648L332.2+648C342.5+648+350.9+656.4+350.9+666.7L350.9+811Z" opacity="1" fill="#daac66"/>
<path d="M405.3+811L367.9+811L367.9+666.7C367.9+656.4+376.3+648+386.6+648L386.6+648C396.9+648+405.3+656.4+405.3+666.7L405.3+811Z" opacity="1" fill="#daac66"/>
<path d="M459.7+811L422.3+811L422.3+666.7C422.3+656.4+430.7+648+441+648L441+648C451.3+648+459.7+656.4+459.7+666.7L459.7+811Z" opacity="1" fill="#daac66"/>
<path d="M514.2+811L476.8+811L476.8+666.7C476.8+656.4+485.2+648+495.5+648L495.5+648C505.8+648+514.2+656.4+514.2+666.7L514.2+811Z" opacity="1" fill="#daac66"/>
<path d="M568.6+811L531.2+811L531.2+666.7C531.2+656.4+539.6+648+549.9+648L549.9+648C560.2+648+568.6+656.4+568.6+666.7L568.6+811Z" opacity="1" fill="#daac66"/>
<path d="M623+811L585.6+811L585.6+666.7C585.6+656.4+594+648+604.3+648L604.3+648C614.6+648+623+656.4+623+666.7L623+811Z" opacity="1" fill="#daac66"/>
<path d="M677.5+811L640.1+811L640.1+666.7C640.1+656.4+648.5+648+658.8+648L658.8+648C669.1+648+677.5+656.4+677.5+666.7L677.5+811Z" opacity="1" fill="#daac66"/>
<path d="M731.9+811L694.5+811L694.5+666.7C694.5+656.4+702.9+648+713.2+648L713.2+648C723.5+648+731.9+656.4+731.9+666.7L731.9+811Z" opacity="1" fill="#daac66"/>
<path d="M786.3+811L749+811L749+666.7C749+656.4+757.4+648+767.7+648L767.7+648C778+648+786.4+656.4+786.4+666.7L786.4+811L786.3+811Z" opacity="1" fill="#daac66"/>
<path d="M840.8+811L803.4+811L803.4+666.7C803.4+656.4+811.8+648+822.1+648L822.1+648C832.4+648+840.8+656.4+840.8+666.7L840.8+811Z" opacity="1" fill="#daac66"/>
<path d="M895.2+811L857.8+811L857.8+666.7C857.8+656.4+866.2+648+876.5+648L876.5+648C886.8+648+895.2+656.4+895.2+666.7L895.2+811Z" opacity="1" fill="#daac66"/>
<path d="M949.6+811L912.2+811L912.2+666.7C912.2+656.4+920.6+648+930.9+648L930.9+648C941.2+648+949.6+656.4+949.6+666.7L949.6+811Z" opacity="1" fill="#daac66"/>
<path d="M1004.1+811L966.7+811L966.7+666.7C966.7+656.4+975.1+648+985.4+648L985.4+648C995.7+648+1004.1+656.4+1004.1+666.7L1004.1+811Z" opacity="1" fill="#daac66"/>
<path d="M1058.5+811L1021.1+811L1021.1+666.7C1021.1+656.4+1029.5+648+1039.8+648L1039.8+648C1050.1+648+1058.5+656.4+1058.5+666.7L1058.5+811Z" opacity="1" fill="#daac66"/>
<path d="M1112.9+811L1075.5+811L1075.5+666.7C1075.5+656.4+1083.9+648+1094.2+648L1094.2+648C1104.5+648+1112.9+656.4+1112.9+666.7L1112.9+811Z" opacity="1" fill="#daac66"/>
<path d="M1167.4+811L1130+811L1130+666.7C1130+656.4+1138.4+648+1148.7+648L1148.7+648C1159+648+1167.4+656.4+1167.4+666.7C1167.4+666.7+1167.4+811+1167.4+811Z" opacity="1" fill="#daac66"/>
<path d="M1221.8+811L1184.4+811L1184.4+666.7C1184.4+656.4+1192.8+648+1203.1+648L1203.1+648C1213.4+648+1221.8+656.4+1221.8+666.7L1221.8+811Z" opacity="1" fill="#daac66"/>
<path d="M1276.2+811L1238.8+811L1238.8+666.7C1238.8+656.4+1247.2+648+1257.5+648L1257.5+648C1267.8+648+1276.2+656.4+1276.2+666.7L1276.2+811Z" opacity="1" fill="#daac66"/>
<path d="M1330.7+811L1293.3+811L1293.3+666.7C1293.3+656.4+1301.7+648+1312+648L1312+648C1322.3+648+1330.7+656.4+1330.7+666.7L1330.7+811Z" opacity="1" fill="#daac66"/>
<path d="M1385.1+811L1347.7+811L1347.7+666.7C1347.7+656.4+1356.1+648+1366.4+648L1366.4+648C1376.7+648+1385.1+656.4+1385.1+666.7L1385.1+811Z" opacity="1" fill="#daac66"/>
<path d="M1439.5+811L1402.1+811L1402.1+666.7C1402.1+656.4+1410.5+648+1420.8+648L1420.8+648C1431.1+648+1439.5+656.4+1439.5+666.7L1439.5+811Z" opacity="1" fill="#daac66"/>
</g>
</g>
<path d="M559.7+872.9C559.7+861.247+625.738+851.8+707.2+851.8C788.662+851.8+854.7+861.247+854.7+872.9C854.7+884.553+788.662+894+707.2+894C625.738+894+559.7+884.553+559.7+872.9Z" opacity="1" fill="#c3c5c1"/>
<path d="M916.3+912.2C916.3+904.468+960.31+898.2+1014.6+898.2C1068.89+898.2+1112.9+904.468+1112.9+912.2C1112.9+919.932+1068.89+926.2+1014.6+926.2C960.31+926.2+916.3+919.932+916.3+912.2Z" opacity="1" fill="#c3c5c1"/>
<path d="M-6.4+925C-6.4+916.44+42.2219+909.5+102.2+909.5C162.178+909.5+210.8+916.44+210.8+925C210.8+933.56+162.178+940.5+102.2+940.5C42.2219+940.5-6.4+933.56-6.4+925Z" opacity="1" fill="#c3c5c1"/>
<g opacity="1">
<g opacity="1">
<path d="M1300.5+842.7L1313.2+842.7L1313.2+842.7L1313.2+1007.4L1313.2+1007.4L1300.5+1007.4L1300.5+1007.4L1300.5+842.7L1300.5+842.7Z" opacity="1" fill="#857d7b"/>
<path d="M1300.5+842.7L1313.2+842.7L1313.2+842.7L1313.2+868.3L1313.2+868.3L1300.5+868.3L1300.5+868.3L1300.5+842.7L1300.5+842.7Z" opacity="1" fill="#5f5958"/>
<path d="M1294.5+1002L1319.2+1002L1319.2+1002L1319.2+1007.4L1319.2+1007.4L1294.5+1007.4L1294.5+1007.4L1294.5+1002L1294.5+1002Z" opacity="1" fill="#857d7b"/>
<path d="M1264+981.2L1264+999.7L1251.3+999.7L1251.3+1007.4L1276.7+1007.4L1276.7+981.2L1264+981.2Z" opacity="1" fill="#857d7b"/>
<path d="M1349.5+981.2L1349.5+999.7L1362.1+999.7L1362.1+1007.4L1336.8+1007.4L1336.8+981.2L1349.5+981.2Z" opacity="1" fill="#857d7b"/>
<path d="M1264+980.5L1349.7+980.5L1349.7+980.5L1349.7+987.3L1349.7+987.3L1264+987.3L1264+987.3L1264+980.5L1264+980.5Z" opacity="1" fill="#857d7b"/>
<path d="M1198.4+842.7L1415+842.7L1415+842.7L1415+857.2L1415+857.2L1198.4+857.2L1198.4+857.2L1198.4+842.7L1198.4+842.7Z" opacity="1" fill="#87b1be"/>
<path d="M1198.4+851.7L1415+851.7L1415+851.7L1415+857.1L1415+857.1L1198.4+857.1L1198.4+857.1L1198.4+851.7L1198.4+851.7Z" opacity="1" fill="#6f8ea1"/>
</g>
<path d="M1306.7+842.7L1210+842.7L1293+912.2C1300.9+918.8+1312.5+918.8+1320.4+912.2L1403.4+842.7L1306.7+842.7Z" opacity="1" fill="#f69321"/>
<path d="M1223.8+842.7L1293+900.6C1300.9+907.2+1312.5+907.2+1320.4+900.6L1389.6+842.7L1306.7+842.7L1223.8+842.7Z" opacity="1" fill="#e44163"/>
</g>
<g opacity="1">
<path d="M1248.1+843.1L1244.1+841.7C1243+841.3+1242.2+840.2+1242.2+839L1242.2+826.6C1252.1+819.8+1250.9+795.6+1250.9+795.6L1241.6+795.6L1239.3+795.6L1230+795.6C1230+795.6+1228.9+819.9+1238.7+826.6L1238.7+839C1238.7+840.2+1237.9+841.3+1236.8+841.7L1232.8+843.1C1232.5+843.3+1232.6+843.8+1233+843.8L1239.3+843.8L1241.6+843.8L1247.9+843.8C1248.3+843.8+1248.4+843.3+1248.1+843.1Z" opacity="1" fill="#deded9"/>
<path d="M1230.9+805.9C1231.6+813+1233.5+822.3+1238.9+826L1242.1+826C1247.5+822.3+1249.4+813.1+1250.1+805.9L1230.9+805.9Z" opacity="1" fill="#90bfc3"/>
</g>
<g opacity="1">
<path d="M1294.3+843.1L1290.3+841.7C1289.2+841.3+1288.4+840.2+1288.4+839L1288.4+826.6C1298.3+819.8+1297.1+795.6+1297.1+795.6L1287.8+795.6L1285.5+795.6L1276.2+795.6C1276.2+795.6+1275.1+819.9+1284.9+826.6L1284.9+839C1284.9+840.2+1284.1+841.3+1283+841.7L1279+843.1C1278.7+843.3+1278.8+843.8+1279.2+843.8L1285.5+843.8L1287.8+843.8L1294.1+843.8C1294.5+843.8+1294.7+843.3+1294.3+843.1Z" opacity="1" fill="#deded9"/>
<path d="M1277.2+805.9C1277.9+813+1279.8+822.3+1285.2+826L1288.4+826C1293.8+822.3+1295.7+813.1+1296.4+805.9L1277.2+805.9Z" opacity="1" fill="#90bfc3"/>
</g>
<g opacity="1">
<path d="M1326.8+843.1L1322.8+841.7C1321.7+841.3+1320.9+840.2+1320.9+839L1320.9+826.6C1330.8+819.8+1329.6+795.6+1329.6+795.6L1320.3+795.6L1318+795.6L1308.7+795.6C1308.7+795.6+1307.6+819.9+1317.4+826.6L1317.4+839C1317.4+840.2+1316.6+841.3+1315.5+841.7L1311.5+843.1C1311.2+843.3+1311.3+843.8+1311.7+843.8L1318+843.8L1320.3+843.8L1326.6+843.8C1327+843.8+1327.2+843.3+1326.8+843.1Z" opacity="1" fill="#deded9"/>
<path d="M1309.7+805.9C1310.4+813+1312.3+822.3+1317.7+826L1320.9+826C1326.3+822.3+1328.2+813.1+1328.9+805.9L1309.7+805.9Z" opacity="1" fill="#90bfc3"/>
</g>
<g opacity="1">
<path d="M1369.8+843.1L1365.8+841.7C1364.7+841.3+1363.9+840.2+1363.9+839L1363.9+826.6C1373.8+819.8+1372.6+795.6+1372.6+795.6L1363.3+795.6L1361+795.6L1351.7+795.6C1351.7+795.6+1350.6+819.9+1360.4+826.6L1360.4+839C1360.4+840.2+1359.6+841.3+1358.5+841.7L1354.5+843.1C1354.2+843.3+1354.3+843.8+1354.7+843.8L1361+843.8L1363.3+843.8L1369.6+843.8C1369.9+843.8+1370.1+843.3+1369.8+843.1Z" opacity="1" fill="#deded9"/>
<path d="M1352.6+805.9C1353.3+813+1355.2+822.3+1360.6+826L1363.8+826C1369.2+822.3+1371.1+813.1+1371.8+805.9L1352.6+805.9Z" opacity="1" fill="#c97a71"/>
</g>
<g opacity="1">
<path d="M1098.9+271.1C1098.9+271.1+917.1+226+710.8+224.5L710.8+224.5C709+224.5+707.2+224.5+705.4+224.5C703.6+224.5+701.8+224.5+700+224.5L700+224.5C493.7+226.1+311.9+271.1+311.9+271.1L334.8+412.4C435+374+667.2+363.4+705.5+361.9C743.8+363.4+976+374+1076.2+412.4L1098.9+271.1Z" opacity="1" fill="#fee672"/>
<g opacity="1">
<path d="M335.2+366.8C335.2+366.8+677.3+257.9+1071.2+366.8" opacity="1" fill="none"/>
<text font-size="12" font-family="'Helvetica'" transform="matrix(1 0 0 1 0 0)" opacity="1" fill="#000000">
<textPath xlink:href="#TextPath" method="align" startOffset="0pt">
<![CDATA[]]></textPath>
</text>
<g opacity="1">
<path d="M7.0997-70.7278L28.9759-70.7278C33.3063-70.7278+36.5355-70.5473+38.6634-70.1864C40.7912-69.8256+42.6951-69.0727+44.3751-67.9279C46.055-66.7831+47.4549-65.2587+48.5748-63.3548C49.6948-61.4509+50.2547-59.3168+50.2547-56.9525C50.2547-54.3891+49.5641-52.0372+48.1828-49.8969C46.8016-47.7565+44.9288-46.1513+42.5645-45.0811C45.8994-44.1105+48.4628-42.4555+50.2547-40.116C52.0466-37.7766+52.9426-35.0265+52.9426-31.8658C52.9426-29.3771+52.364-26.9568+51.2067-24.6049C50.0494-22.253+48.4691-20.374+46.4656-18.9678C44.4622-17.5617+41.9921-16.6969+39.0553-16.3733C37.2137-16.1742+32.7712-16.0498+25.728-16L7.0997-16L7.0997-70.7278ZM18.1498-61.6189L18.1498-48.9636L25.3921-48.9636C29.6976-48.9636+32.373-49.0258+33.4183-49.1502C35.3098-49.3742+36.7968-50.0275+37.8794-51.1101C38.962-52.1927+39.5033-53.6176+39.5033-55.3846C39.5033-57.0769+39.0367-58.452+38.1034-59.5097C37.1701-60.5674+35.7826-61.2083+33.9409-61.4322C32.8459-61.5567+29.6976-61.6189+24.4961-61.6189L18.1498-61.6189ZM18.1498-39.8547L18.1498-25.2208L28.3786-25.2208C32.3606-25.2208+34.8867-25.3328+35.9568-25.5568C37.5994-25.8555+38.9371-26.5834+39.97-27.7407C41.0028-28.898+41.5192-30.4472+41.5192-32.3885C41.5192-34.031+41.121-35.4247+40.3246-36.5696C39.5282-37.7144+38.3771-38.5481+36.8715-39.0708C35.3658-39.5934+32.0993-39.8547+27.072-39.8547L18.1498-39.8547Z" opacity="1" fill="#3b5a73"/>
<path d="M62.5741-16L62.5741-70.2798L73.6242-70.2798L73.6242-25.2208L101.1-25.2208L101.1-16L62.5741-16Z" opacity="1" fill="#3b5a73"/>
<path d="M106.737-43.0279C106.737-48.6027+107.571-53.2816+109.238-57.0645C110.483-59.8519+112.181-62.3531+114.334-64.5681C116.487-66.7831+118.845-68.4257+121.408-69.4958C124.818-70.9393+128.75-71.661+133.205-71.661C141.269-71.661+147.721-69.1598+152.561-64.1574C157.402-59.155+159.822-52.199+159.822-43.2892C159.822-34.4541+157.421-27.5416+152.617-22.5517C147.814-17.5617+141.393-15.0667+133.354-15.0667C125.216-15.0667+118.745-17.5493+113.942-22.5143C109.139-27.4794+106.737-34.3172+106.737-43.0279ZM118.123-43.4012C118.123-37.2042+119.554-32.5067+122.416-29.3086C125.278-26.1106+128.912-24.5115+133.317-24.5115C137.722-24.5115+141.337-26.0981+144.162-29.2713C146.986-32.4445+148.399-37.2042+148.399-43.5505C148.399-49.8222+147.024-54.5011+144.274-57.5871C141.524-60.6732+137.871-62.2162+133.317-62.2162C128.763-62.2162+125.092-60.6545+122.304-57.5311C119.517-54.4077+118.123-49.6978+118.123-43.4012Z" opacity="1" fill="#3b5a73"/>
<path d="M203.463-36.1216L214.177-32.7244C212.534-26.7514+209.803-22.3152+205.982-19.4158C202.162-16.5164+197.315-15.0667+191.442-15.0667C184.175-15.0667+178.202-17.5493+173.523-22.5143C168.844-27.4794+166.505-34.2675+166.505-42.8786C166.505-51.9874+168.856-59.0617+173.56-64.1014C178.264-69.1412+184.448-71.661+192.114-71.661C198.809-71.661+204.247-69.6825+208.428-65.7254C210.916-63.3859+212.783-60.0261+214.027-55.6459L203.089-53.0327C202.442-55.8699+201.092-58.1098+199.039-59.7523C196.986-61.3949+194.491-62.2162+191.554-62.2162C187.497-62.2162+184.206-60.7603+181.68-57.8484C179.154-54.9366+177.891-50.2204+177.891-43.6999C177.891-36.7811+179.135-31.8534+181.624-28.9166C184.113-25.9799+187.348-24.5115+191.33-24.5115C194.267-24.5115+196.793-25.4448+198.908-27.3114C201.024-29.178+202.542-32.1147+203.463-36.1216Z" opacity="1" fill="#3b5a73"/>
<path d="M223.808-16L223.808-70.7278L234.858-70.7278L234.858-46.425L257.182-70.7278L272.04-70.7278L251.433-49.4116L273.16-16L258.862-16L243.818-41.684L234.858-32.5378L234.858-16L223.808-16Z" opacity="1" fill="#3b5a73"/>
<path d="M300.113-16L300.113-70.7278L317.846-70.7278C324.565-70.7278+328.946-70.454+330.986-69.9065C334.122-69.0852+336.748-67.2995+338.863-64.5494C340.979-61.7993+342.037-58.2466+342.037-53.8913C342.037-50.5315+341.427-47.7068+340.207-45.4171C338.988-43.1274+337.439-41.3293+335.56-40.0227C333.681-38.7161+331.77-37.8513+329.829-37.4282C327.191-36.9056+323.371-36.6442+318.368-36.6442L311.164-36.6442L311.164-16L300.113-16ZM311.164-61.4696L311.164-45.9397L317.211-45.9397C321.567-45.9397+324.478-46.2259+325.947-46.7984C327.415-47.3708+328.566-48.2667+329.4-49.4862C330.234-50.7057+330.65-52.1243+330.65-53.742C330.65-55.733+330.066-57.3756+328.896-58.6697C327.726-59.9639+326.245-60.7727+324.453-61.0963C323.134-61.3451+320.484-61.4696+316.502-61.4696L311.164-61.4696Z" opacity="1" fill="#3b5a73"/>
<path d="M394.786-16L382.765-16L377.987-28.4313L356.11-28.4313L351.593-16L339.871-16L361.188-70.7278L372.872-70.7278L394.786-16ZM374.44-37.6522L366.899-57.9604L359.508-37.6522L374.44-37.6522Z" opacity="1" fill="#3b5a73"/>
<path d="M400.684-16L400.684-70.7278L423.942-70.7278C429.79-70.7278+434.04-70.2362+436.69-69.2532C439.341-68.2701+441.462-66.5218+443.055-64.0081C444.648-61.4945+445.444-58.62+445.444-55.3846C445.444-51.2781+444.237-47.8872+441.823-45.2118C439.409-42.5364+435.8-40.8502+430.997-40.1534C433.386-38.7597+435.359-37.2291+436.914-35.5616C438.47-33.8942+440.566-30.9325+443.204-26.6768L449.887-16L436.672-16L428.683-27.9087C425.845-32.1645+423.904-34.8461+422.859-35.9536C421.814-37.0611+420.706-37.8202+419.536-38.2308C418.367-38.6415+416.513-38.8468+413.974-38.8468L411.734-38.8468L411.734-16L400.684-16ZM411.734-47.5823L419.91-47.5823C425.211-47.5823+428.521-47.8063+429.84-48.2543C431.159-48.7023+432.192-49.4738+432.938-50.5688C433.685-51.6639+434.058-53.0327+434.058-54.6753C434.058-56.517+433.567-58.004+432.584-59.1364C431.601-60.2688+430.213-60.9843+428.421-61.2829C427.525-61.4074+424.837-61.4696+420.358-61.4696L411.734-61.4696L411.734-47.5823Z" opacity="1" fill="#3b5a73"/>
<path d="M468.179-16L468.179-61.4696L451.94-61.4696L451.94-70.7278L495.431-70.7278L495.431-61.4696L479.229-61.4696L479.229-16L468.179-16Z" opacity="1" fill="#3b5a73"/>
<path d="M516.934-16L516.934-39.0334L496.887-70.7278L509.841-70.7278L522.72-49.0756L535.338-70.7278L548.068-70.7278L527.947-38.9588L527.947-16L516.934-16Z" opacity="1" fill="#3b5a73"/>
</g>
</g>
<path d="M412.2+813.8L321.6+253.9L309.3+255.9L399.5+813.8L412.2+813.8Z" opacity="1" fill="#ae7f77"/>
<path d="M1010.9+813.8L1101.2+255.9L1088.8+253.9L998.2+813.8L1010.9+813.8Z" opacity="1" fill="#ae7f77"/>
</g>
<g opacity="1">
<path d="M988.1+627.3L941+669.5L914.8+618.2C914.8+618.2+918.2+609.1+918.2+605.8C918.2+602.6+917.8+597.3+917.8+592C917.8+586.7+913.3+593.2+913.3+600.9L912.1+602.5C912.1+602.5+907.2+591.5+905.6+585.5C904+579.4+894.6+588.7+893+597.3C891.4+605.8+899.1+618.4+900.7+619.2C902.3+620+928.7+679.7+931.5+683.7C934.3+687.8+938+690.2+956.2+677.6C974.5+665+998.4+641.9+998.4+641.9L988.1+627.3Z" opacity="1" fill="#fccfbc"/>
<path d="M1027.2+605C1027.2+605+1029.3+618.7+1026.3+622C1023.3+625.3+1036.3+627.5+1038.5+627.8C1040.6+628.1+1048.5+623.2+1049.8+610.5C1050.9+597.7+1027.2+605+1027.2+605Z" opacity="1" fill="#fab9a1"/>
<path d="M990.9+626.4C990.9+626.4+994.1+621.9+1009.6+621.9C1025+621.9+1064+625.1+1069.7+627.6C1075.4+630+1074.2+636.9+1074.2+636.9C1074.2+636.9+1048.6+647+1043+647C1037.2+647.1+990.9+626.4+990.9+626.4Z" opacity="1" fill="#fccfbc"/>
<path d="M978+718.7L984.2+912.6L989.3+914.4L1023.8+734.7L978+718.7Z" opacity="1" fill="#fccfbc"/>
<path d="M1000.3+756.5L1070.3+815.8L1038.8+885.7L1046.6+893L1051.5+880.1L1098.1+806.8L1042.9+741.3L1000.3+756.5Z" opacity="1" fill="#fccfbc"/>
<path d="M966.6+729.5C966.6+729.5+960.5+754.7+968.6+773.7C976.7+792.8+970.6+804.1+968.2+808.6C965.8+813.1+972.3+813.1+978.8+813.1C985.3+813.1+991.4+818.4+999.1+814.7C1006.8+811+1007.6+807.8+1007.6+807.8C1007.6+807.8+1012.1+812.7+1020.2+809C1028.3+805.3+1028.7+801.3+1028.7+801.3C1028.7+801.3+1038.8+802.9+1044.9+800.1C1051+797.3+1051+792+1051+792C1051+792+1061.5+795.2+1064.8+789.6C1068+783.9+1068+783.9+1068+783.9C1068+783.9+1074.1+784.7+1076.5+777C1078.9+769.3+1047.3+744.1+1045.3+738.5C1043.3+732.8+966.6+729.5+966.6+729.5Z" opacity="1" fill="#231f20"/>
<path d="M1089.4+658.7C1083.4+661+1077+658.7+1075+653.6C1073+648.5+1076.2+642.5+1082.1+640.1L1076.2+627.8C1076.2+627.8+1064+639.4+1031.8+635.1C999.5+630.8+992.2+618.7+992.2+618.7L981.6+628.1C981.8+628.2+981.9+628.3+982.1+628.4C987.3+632.1+988.9+638.8+985.7+643.3C982.5+647.8+975.6+648.4+970.4+644.6C969+643.6+967.9+642.4+967+641L958+649L975.6+666L995.1+652.6C995.1+652.6+1004.2+678.2+992.7+694C981.1+709.8+970.2+717.1+966.5+729.3C962.8+741.5+1006.1+761.6+1042.6+745.1C1042.6+745.1+1046.3+722.6+1045+706.1C1043.8+689.7+1059+662.3+1064.5+656.2L1068.8+670.2L1095+666.5L1090.8+657.8C1090.4+658.3+1089.9+658.5+1089.4+658.7Z" opacity="1" fill="#231f20"/>
<path d="M1066.4+650C1066.4+650+1077.4+691.4+1078.6+697.1C1079.8+702.8+1046.1+725.5+1046.1+725.5C1046.1+725.5+1042.9+722.7+1040.8+720.2C1038.8+717.8+1036.7+710.5+1036.7+710.5C1036.7+710.5+1033+713.3+1033.9+717.4C1034.7+721.5+1038.4+722.3+1038.8+724.7C1039.2+727.1+1039.2+745.4+1044.1+744.2C1049+743+1049.4+736.9+1049.4+736.9C1049.4+736.9+1095.7+711.3+1098.9+702C1102.1+692.7+1081+644.4+1079+640.7C1077+637+1066.4+650+1066.4+650Z" opacity="1" fill="#fccfbc"/>
<path d="M1059.1+634.9L1059.1+664.5C1061.3+660.9+1063.2+658+1064.6+656.5L1068.9+670.5L1095.1+666.8L1090.9+658.1C1090.5+658.3+1090+658.5+1089.6+658.7C1083.6+661+1077.2+658.7+1075.2+653.6C1073.2+648.5+1076.4+642.5+1082.3+640.1L1078.8+632.9L1066.7+632.9C1064.4+633.7+1062+634.3+1059.1+634.9Z" opacity="1" fill="#231f20"/>
<path d="M1041.2+877.4C1041.2+877.4+1048.7+874+1051.6+881.6L1049.5+886.1C1049.5+886.1+1047.6+879+1039.1+882.9L1041.2+877.4Z" opacity="1" fill="#231f20"/>
<path d="M1046.8+888.6L1039.2+882.8C1039.2+882.8+1033.7+887+1034.5+892.8C1035.4+898.6+1035.2+902.9+1035.2+902.9L1042.7+905.8L1045.6+898.8C1045.6+898.8+1047+905+1055.3+906.4C1063.6+907.8+1066.9+906.6+1066.9+906.6C1066.9+906.6+1070.1+903+1065.4+898.9C1060.8+894.8+1050.3+897.5+1051.7+881.4L1049.2+880.6L1046.8+888.6Z" opacity="1" fill="#231f20"/>
<path d="M982.365+898.048L994.784+900.18L994.784+900.18L993.972+904.911L993.972+904.911L981.553+902.779L981.553+902.779L982.365+898.048L982.365+898.048Z" opacity="1" fill="#231f20"/>
<path d="M981.5+902.8L985.1+900.2L985.7+909.9L989.5+910.6L991.8+903.1L995.6+903.8C995.6+903.8+997.9+913+994.5+918.8C991.1+924.6+991.1+924.6+991.1+924.6L980.1+922.7C980.1+922.7+978.5+917.5+979.4+912.8C980.1+908+981.5+902.8+981.5+902.8Z" opacity="1" fill="#231f20"/>
<path d="M1015.5+589.7C1015.5+589.7+1015.2+596.6+1014.1+598.1C1015.4+600.1+1018+599.1+1018+599.1L1015.5+589.7Z" opacity="1" fill="#fab9a1"/>
<path d="M1011.6+570C1011.6+570+1014+591.6+1018.6+601.6C1023.2+611.6+1025.3+609.8+1025.3+609.8L1033.5+605.2C1033.5+605.2+1045.1+593+1045.1+590C1045.1+587+1040.5+568.4+1039.3+567.5C1038.1+566.7+1011.6+570+1011.6+570Z" opacity="1" fill="#fccfbc"/>
<path d="M1020+581C1020.8+581.1+1024.9+589.3+1025.3+590.4C1025.7+591.5+1023.7+582.7+1023+581.1C1022.4+579.5+1020+581+1020+581Z" opacity="1" fill="#231f20"/>
<path d="M1014.7+622.1C1014.7+622.1+1050.6+633.7+1063.4+615.1C1076.2+596.5+1062.5+555.2+1043.6+549.1C1024.7+543+1008.6+559.8+1010.4+572.2C1012.2+584.7+1021.1+581.9+1027.7+583.8C1034.4+585.6+1034.7+594.8+1027.4+594.1C1027.4+594.1+1031.1+599+1028.9+609.3C1026.8+619.6+1021.3+617.5+1012.8+618.7C1004.3+619.9+1002.8+622+1002.8+622C1002.8+622+1009.5+620.6+1014.7+622.1Z" opacity="1" fill="#231f20"/>
<path d="M1014.6+583.9L1014.6+583.8L1014.6+583.8C1014.6+583.6+1014.6+582.7+1015.3+581.9L1015.3+581.9C1016+581+1017.3+580.3+1019.4+580.4L1019.4+580.4C1019.6+580.4+1019.8+580.4+1020+580.4L1020+580.4C1020.4+580.4+1020.7+580.8+1020.7+581.1L1020.7+581.1C1020.7+581.5+1020.3+581.8+1020+581.8L1020+581.8C1019.8+581.8+1019.7+581.8+1019.5+581.8L1019.5+581.8C1015.9+581.9+1016.2+583.7+1016.1+583.9L1016.1+583.9C1016.1+584.2+1015.9+584.6+1015.5+584.6L1015.5+584.6L1015.4+584.6L1015.4+584.6C1015+584.4+1014.7+584.2+1014.6+583.9L1014.6+583.9Z" opacity="1" fill="#231f20"/>
<path d="M1016.4+592C1016.1+591.8+1015.9+591.4+1016.1+591.1L1016.1+591.1C1016.1+591+1017.4+588.6+1020.2+588.6L1020.2+588.6C1020.5+588.6+1020.9+588.6+1021.3+588.7L1021.3+588.7C1021.7+588.8+1021.9+589.2+1021.8+589.5L1021.8+589.5C1021.7+589.9+1021.3+590.1+1021+590L1021+590C1020.7+589.9+1020.5+589.9+1020.2+589.9L1020.2+589.9C1019.2+589.9+1018.5+590.3+1018+590.8L1018+590.8C1017.5+591.2+1017.3+591.7+1017.3+591.7L1017.3+591.7C1017.2+591.9+1016.9+592.1+1016.7+592.1L1016.7+592.1C1016.6+592.1+1016.5+592.1+1016.4+592L1016.4+592Z" opacity="1" fill="#231f20"/>
<path d="M1020.7+605.7C1020.9+606.1+1021.1+606.4+1021.4+606.8C1024.7+605.5+1025.3+602.8+1025.2+601.7C1025.2+601.4+1025.2+601.2+1025.2+601.2C1025.1+600.9+1024.8+600.6+1024.5+600.7C1024.2+600.8+1023.9+601.1+1024+601.4L1024+601.4C1024+601.4+1024+601.5+1024+601.8C1023.9+602.6+1023.7+604.7+1020.7+605.7Z" opacity="1" fill="#231f20"/>
</g>
<g opacity="1">
<path d="M734.3+623.9L872.4+587.1C872.4+587.1+873.2+594.6+851.9+601.3C851.9+601.3+850+609.7+838.2+606.3C838.2+606.3+771.2+635.2+745+638.1C719+641.1+734.3+623.9+734.3+623.9Z" opacity="1" fill="#fccfbc"/>
<path d="M839.8+600.9L846.3+598.8C846.3+598.8+850.1+603.8+857.3+602.1C864.5+600.4+866+602.5+866+602.5C866+602.5+847+611.7+839.8+606.3C832.6+600.9+839.8+600.9+839.8+600.9Z" opacity="1" fill="#fccfbc"/>
<path d="M579.4+865.3L574.9+867.7L574.9+871.7L623.4+871.7L623.4+866.2L579.4+865.3Z" opacity="1" fill="#8a6558"/>
<path d="M611.1+846.8C611.1+846.8+612.9+855.8+600.7+857.8C588.5+859.8+584.9+858.8+579.4+859.8C574+860.8+574.9+867.8+574.9+867.8L623.8+868.8C623.8+868.8+627.9+858.8+625.2+847.3C622.4+835.8+611.1+846.8+611.1+846.8Z" opacity="1" fill="#231f20"/>
<path d="M801.2+874.5L801.5+880.1L804.8+881.7L824.2+832.3L819.7+830.1L801.2+874.5Z" opacity="1" fill="#8a6558"/>
<path d="M798.3+834.5C798.3+834.5+806.5+836.1+803.5+849.3C800.5+862.5+798.3+865.8+797.1+871.7C795.9+877.6+802.1+879.4+802.1+879.4L821.6+830C821.6+830+814.8+822+804.1+820.4C793.4+818.8+798.3+834.5+798.3+834.5Z" opacity="1" fill="#231f20"/>
<path d="M675.9+744.3L718.9+792.9L800.9+837.3L806.7+820.3L744.7+777.9L750+733.5L678.6+744.9L675.9+744.3Z" opacity="1" fill="#8a6558"/>
<path d="M718.9+792.9L720.9+794L709.4+763.5L748.8+744L750+733.5L678.6+744.9L691.2+761.7L718.9+792.9Z" opacity="1" fill="#755141"/>
<path d="M667.7+741L605.2+781.9L608.9+850.3L616.6+851.8L625.2+847.3L624.7+791.9L734.7+748.5L667.7+741Z" opacity="1" fill="#8a6558"/>
<path d="M652.3+643.7L710.2+626.2L749.6+613.7L757.7+652.6C757.7+652.6+721.9+658.6+720.1+658.6C718.3+658.6+748.2+713+751.3+723C754.5+733+754.5+741.5+754.5+741.5C754.5+741.5+711.5+758.5+690.7+753.5C669.9+748.5+662.6+742.5+662.6+742.5C662.6+742.5+658.1+694.6+648.1+687.6C638.1+680.6+638.1+680.6+638.1+680.6L652.3+643.7Z" opacity="1" fill="#58c0a2"/>
<path d="M654.1+642.7L581.7+675.6L608.4+704.6L660.9+668.2L654.1+642.7Z" opacity="1" fill="#58c0a2"/>
<path d="M690.6+654.2L695.2+651.7C695.2+651.7+699.4+653.4+704.7+653.4C710+653.4+711.2+656.3+711.2+656.3C711.2+656.3+701.7+660.1+696+660.1C690.2+660.1+690.6+654.2+690.6+654.2Z" opacity="1" fill="#fabca7"/>
<path d="M626.5+649.2C626.5+649.2+611.1+648.7+608.4+635.7C605.7+622.7+619.3+616.2+619.3+616.2C619.3+616.2+626.5+606.2+639.2+605.2C651.9+604.2+656.4+607.2+662.7+607.7C669+608.2+674+602.7+674+602.7C674+602.7+675.4+607.7+669.5+610.7C669.5+610.7+672.7+615.2+679.5+616.2C686.3+617.2+690.4+613.7+690.4+613.7C690.4+613.7+689.5+621.2+680.4+621.2C680.4+621.2+685.8+625.7+685.8+636.2C685.8+646.7+674+662.1+664.5+666.1C655+670.2+626.5+649.2+626.5+649.2Z" opacity="1" fill="#231f20"/>
<path d="M619.3+644.2C619.3+644.2+621.6+670.6+632.4+678.6C643.3+686.6+650.1+685.1+650.1+685.1C650.1+685.1+668.7+680.6+670+653.2C670+653.2+683.1+652.7+680.4+638.7C677.7+624.7+670.4+638.7+670.4+638.7L664.1+649.7L660.5+648.2C660.5+648.2+652.8+633.7+652.4+629.2C651.9+624.7+623.9+635.2+623.9+635.2L626.2+639.2L617.1+642.2L619.3+644.2Z" opacity="1" fill="#fccfbc"/>
<path d="M678.8+648.9L622.6+661.4C624.6+668.2+627.7+675.2+632.4+678.7C643.3+686.7+650.1+685.2+650.1+685.2C650.1+685.2+668.7+680.7+670+653.3C670+653.2+675.6+653+678.8+648.9Z" opacity="1" fill="#fabca7"/>
<path d="M625.4+662.7C625.4+662.3+625.7+662+626.1+662L626.1+662C628.1+662+629.8+660.9+631+659.7L631+659.7C632.2+658.5+632.8+657.4+632.8+657.4L632.8+657.4L632.8+657.4C633+657+633.4+656.9+633.7+657.1L633.7+657.1C634+657.3+634.1+657.8+633.9+658.1L633.9+658.1C633.8+658.1+631.1+663.4+626.1+663.5L626.1+663.5C625.7+663.4+625.4+663.1+625.4+662.7L625.4+662.7Z" opacity="1" fill="#231f20"/>
<path d="M642+656.8L642+656.8C641.7+656.6+641.6+656.1+641.7+655.8L641.7+655.8C641.9+655.4+642.3+655.3+642.6+655.5L642.6+655.5C642.6+655.5+642.7+655.6+643.2+655.7L643.2+655.7C643.6+655.8+644.3+656+645.3+656L645.3+656C647.4+656+650.9+655.4+656.1+652.5L656.1+652.5C656.4+652.3+656.8+652.5+657+652.8L657+652.8C657.2+653.2+657+653.6+656.7+653.8L656.7+653.8C651.4+656.7+647.7+657.4+645.3+657.4L645.3+657.4C643.2+657.5+642.1+656.9+642+656.8L642+656.8Z" opacity="1" fill="#231f20"/>
<path d="M581.7+678.1L719.8+641.3C719.8+641.3+720.6+648.8+699.3+655.5C699.3+655.5+697.4+663.9+685.6+660.5C685.6+660.5+638.9+687.3+612.7+690.2C586.6+693.1+581.7+678.1+581.7+678.1Z" opacity="1" fill="#fccfbc"/>
<path d="M638.5+650.9C638.1+650.8+638+650.3+638.1+649.9L638.1+649.9C638.1+649.9+640.6+641.9+647.9+641.8L647.9+641.8C648.3+641.8+648.8+641.8+649.2+641.9L649.2+641.9C649.6+641.9+649.8+642.3+649.8+642.7L649.8+642.7C649.8+643.1+649.4+643.4+649+643.4L649+643.4C648.6+643.3+648.2+643.3+647.8+643.3L647.8+643.3C644.7+643.3+642.6+645+641.2+646.8L641.2+646.8C639.8+648.6+639.3+650.3+639.3+650.3L639.3+650.3C639.2+650.6+638.9+650.8+638.7+650.8L638.7+650.8C638.7+650.9+638.6+650.9+638.5+650.9L638.5+650.9Z" opacity="1" fill="#231f20"/>
<path d="M631.5+653.2C631.5+653.2+631.2+652.9+630.6+652.6L630.6+652.6C630+652.3+629.1+651.9+627.9+651.9L627.9+651.9C626.7+651.9+625.1+652.2+623.3+653.4L623.3+653.4C623+653.6+622.6+653.5+622.4+653.1L622.4+653.1C622.2+652.7+622.3+652.3+622.7+652.1L622.7+652.1C624.7+650.9+626.5+650.5+628+650.5L628+650.5C630.9+650.5+632.5+652.2+632.6+652.3L632.6+652.3C632.9+652.6+632.9+653.1+632.6+653.4L632.6+653.4C632.5+653.5+632.3+653.6+632.1+653.6L632.1+653.6C631.8+653.4+631.6+653.4+631.5+653.2L631.5+653.2Z" opacity="1" fill="#231f20"/>
</g>
<g opacity="1">
<path d="M442.1+577.3L428.6+564.6L430.9+558.6L435.1+559L441.2+554.4L443.1+557.2L451.5+552L453.4+554.4L462.2+552L464.6+572.1L460.4+578.2L442.1+577.3Z" opacity="1" fill="#fbc7b3"/>
<path d="M426+673.5L473.4+631.9L452.7+581L441.2+579.6L434.2+572.6L455.7+558.6L454.8+565.6L445.9+570.7L464.6+569.3L465+574L494.5+636.6L433.7+686.1L426+673.5Z" opacity="1" fill="#fccfbc"/>
<path d="M454.564+586.118L475.16+585.696L475.16+585.696L475.246+589.895L475.246+589.895L454.65+590.317L454.65+590.317L454.564+586.118L454.564+586.118Z" opacity="1" fill="#231f20"/>
<path d="M387.8+665.8C387.8+665.8+392.7+672.5+386.7+675.3C380.7+678.1+375.8+677.4+366+683.7C356.2+690+376.5+698.4+379.7+698.4C382.9+698.4+414.7+692.8+414.7+692.8C414.7+692.8+419.6+684.4+421.4+682.3C423.2+680.2+425.6+671.4+425.6+670C425.6+668.6+410.9+673.2+404.6+670.4C398.3+667.6+401.8+659.2+401.8+659.2L387.8+665.8Z" opacity="1" fill="#fbc7b3"/>
<path d="M357.6+919.2L352.9+922.5L352.4+927.6C352.4+927.6+353.8+933.7+357.1+933.7C360.4+933.7+361.8+930.9+361.8+930.9L357.6+919.2Z" opacity="1" fill="#231f20"/>
<path d="M332.2+840.4L328+836.6L322.9+837.3C322.9+837.3+317.3+840+318.1+843.2C318.8+846.4+321.9+847.1+321.9+847.1L332.2+840.4Z" opacity="1" fill="#231f20"/>
<path d="M433.7+828.6L409.9+865.4L333.9+857.7C333.9+857.7+325.9+864.4+324.5+866.6C323.1+868.8+321+878.4+321+878.4C321+878.4+313.9+872.9+313.3+863.9C312.6+854.9+324+846+326.5+844.5C329+843+334.9+835.3+339.9+844.2L387.8+844L398.2+845.2L403.3+829.3L433.7+828.6Z" opacity="1" fill="#fccfbc"/>
<path d="M425.9+828.8L403.4+829.5L398.2+845.4L387.8+844.1L381.6+844.2L373.5+860.8L377.1+862.1L405.9+865L407.1+863.6L407.6+848.2L427.2+831.4L425.9+828.8Z" opacity="1" fill="#fbc7b3"/>
<path d="M336.6+840.8C336.6+840.8+319.6+852+319+857.9C319+857.9+324.8+858+324.4+866.7C324+875.4+321.7+881.7+317.3+881.3C317.3+881.3+304.2+862.3+315.1+849.2C325.9+836.1+324+839.9+324+839.9C324+839.9+332.8+832.6+336.6+840.8Z" opacity="1" fill="#231f20"/>
<path d="M407.6+826.2L374.9+921.5C374.9+921.5+379.6+930.8+381.4+932.7C383.3+934.6+392.1+938.8+392.1+938.8C392.1+938.8+385.1+944.4+376.2+943C367.3+941.6+361.3+928.5+360.3+925.7C359.4+922.9+353.3+915.4+363.1+912.6L373.8+865.9L385.9+846.7L386.8+828.5L407.6+826.2Z" opacity="1" fill="#fccfbc"/>
<path d="M378.4+760.7C378.4+760.7+364.7+822+364+825.6C363.3+829.2+388.9+838.6+408+837.5C427.1+836.4+451.6+819.5+451.6+819.5C451.6+819.5+434.3+764.7+426.4+755.3C418.4+745.9+378.4+760.7+378.4+760.7Z" opacity="1" fill="#231f20"/>
<path d="M366.9+678.6C366.9+678.6+373+685.6+381.4+687.5C389.8+689.4+409+683.3+415+681.4C421.1+679.5+424.8+667.9+424.8+667.9L432.3+666.5L435.6+685.2L430.9+692.2C430.9+692.2+442.6+707.1+430.4+716C418.2+724.9+436.9+767.9+436.9+767.9C436.9+767.9+421.5+779.6+407.9+782.4C394.4+785.2+372.9+778.2+372.9+778.2C372.9+778.2+378+754.4+375.7+736.2C373.4+718+365.9+700.7+365.9+700.7C365.9+700.7+355.2+698.4+353.3+691.8C351.5+685.2+366.9+678.6+366.9+678.6Z" opacity="1" fill="#51724f"/>
<path d="M453.589+585.324L473.639+580.596L473.639+580.596L474.603+584.684L474.603+584.684L454.553+589.411L454.553+589.411L453.589+585.324L453.589+585.324Z" opacity="1" fill="#51724f"/>
<path d="M267.6+738.2L250.5+731L245.9+735.7L248.1+739.3L246.3+746.8L249.7+747.3L248.4+757.1L251.3+757.8L252.9+766.9L272.1+760.7L275.9+754.4L267.6+738.2Z" opacity="1" fill="#fbc7b3"/>
<path d="M356+691.6L332.8+745L275.3+746.3L269.3+736.5L260+733L256.1+758.4L262.1+754.7L263.1+744.5L269.5+762.1L273.9+760.6L341.6+762.4C341.6+762.4+366.8+704+367.7+700.8C364.6+691.2+356+691.6+356+691.6Z" opacity="1" fill="#fccfbc"/>
<path d="M283.769+744.563L287.724+764.78L287.724+764.78L283.602+765.586L283.602+765.586L279.647+745.37L279.647+745.37L283.769+744.563L283.769+744.563Z" opacity="1" fill="#51724f"/>
<path d="M363.5+642.2C363.5+642.2+354.7+621.4+367.1+612.4C379.5+603.4+411.2+594.4+418.7+625.7C426.2+657+425.1+661.7+421.3+667.5C417.5+673.3+398.2+677.8+398.2+677.8C398.2+677.8+403.3+673.9+401+664.1C398.7+654.3+385.2+670.7+378.9+674C372.5+677.4+362.4+675.7+362.4+675.7C362.4+675.7+367.8+672.3+368.8+664.6C369.7+657+363.5+642.2+363.5+642.2Z" opacity="1" fill="#231f20"/>
<path d="M363.6+624.6C363.6+624.6+361.1+646.6+366.6+659.1C372.1+671.6+383.1+674.6+383.1+674.6C383.1+674.6+401.6+672.1+405.6+654.6C405.6+654.6+412.1+661.1+413.6+650.1C415.1+639.1+410.6+634.1+406.1+639.6L401.6+647.6C401.6+647.6+400.1+638.1+392.1+631.6C384.1+625.1+369.1+631.6+366.1+616.6C366.1+616.6+364.6+620.1+363.6+624.6Z" opacity="1" fill="#fccfbc"/>
<path d="M366.4+649.3C366.2+649+366.4+648.5+366.7+648.4L366.7+648.4C368.4+647.6+369.9+647.2+370.9+647.1L370.9+647.1C369.1+645.7+367+645.5+365.9+645.5L365.9+645.5C365.6+645.5+365.4+645.5+365.4+645.5L365.4+645.5C365+645.5+364.7+645.3+364.6+644.9L364.6+644.9C364.6+644.5+364.8+644.2+365.2+644.1L365.2+644.1C365.2+644.1+365.5+644.1+365.9+644.1L365.9+644.1C367.3+644.1+370.8+644.4+373+647.3L373+647.3C373.2+647.5+373.2+647.8+373.1+648.1L373.1+648.1C373+648.3+372.7+648.5+372.4+648.4L372.4+648.4C372.4+648.4+372.3+648.4+372+648.4L372+648.4C371.3+648.4+369.7+648.5+367.3+649.7L367.3+649.7C367.2+649.7+367.1+649.8+367+649.8L367+649.8C366.8+649.7+366.6+649.6+366.4+649.3L366.4+649.3Z" opacity="1" fill="#231f20"/>
<path d="M373.2+642.3C371+640.3+368.8+639.9+367.2+639.9L367.2+639.9C366.1+639.9+365.5+640.1+365.5+640.1L365.5+640.1C365.1+640.2+364.7+640+364.6+639.6L364.6+639.6C364.5+639.2+364.7+638.8+365.1+638.7L365.1+638.7C365.1+638.7+366+638.4+367.2+638.4L367.2+638.4C369+638.4+371.7+638.9+374.1+641.2L374.1+641.2C374.4+641.5+374.4+641.9+374.1+642.2L374.1+642.2C374+642.3+373.8+642.4+373.6+642.4L373.6+642.4C373.5+642.5+373.3+642.5+373.2+642.3L373.2+642.3Z" opacity="1" fill="#231f20"/>
<path d="M381.5+639.6L381.5+639.6C381.1+639.5+380.9+639.1+381+638.7L381+638.7C381.1+638.5+381.2+638.3+381.5+638.2L381.5+638.2C381.6+638.2+381.7+638.1+381.8+638L381.8+638C382.1+637.8+382.4+637.5+382.9+637.1L382.9+637.1C383.9+636.5+385.3+635.8+387.1+635.8L387.1+635.8C388.2+635.8+389.3+636+390.6+636.5L390.6+636.5C391+636.6+391.1+637.1+391+637.4L391+637.4C390.9+637.8+390.4+637.9+390.1+637.8L390.1+637.8C388.9+637.3+387.9+637.2+387.1+637.2L387.1+637.2C384.9+637.2+383.5+638.4+382.7+639L382.7+639C382.4+639.2+382.5+639.4+381.7+639.5L381.7+639.5L381.7+639.5L381.7+639.5C381.6+639.6+381.6+639.6+381.5+639.6L381.5+639.6Z" opacity="1" fill="#231f20"/>
<path d="M388.3+646.5C388.3+645.8+388.9+645.3+389.7+645.1C389.4+644.5+388.9+644+388.4+644C387.4+644+386.6+645.4+386.6+647.2C386.6+649+387.4+650.4+388.4+650.4C389.2+650.4+389.9+649.4+390.1+648C389.1+647.9+388.3+647.3+388.3+646.5Z" opacity="1" fill="#231f20"/>
<path d="M393.1+658.5C393.1+658.5+383.7+664.6+373.1+661.6C373.1+661.6+376.6+668.3+382.8+668.6C389+668.8+393.1+658.5+393.1+658.5Z" opacity="1" fill="#231f20"/>
<path d="M386.3+665.6C386.3+665.6+384.9+665.4+383.1+665.4C381.3+665.4+380.8+666.2+380.8+666.2C380.8+666.2+383.6+668.1+386.3+665.6Z" opacity="1" fill="#e56ea4"/>
<path d="M386.5+675.9C386.2+675.7+386+675.3+386.2+675L386.2+675C386.4+674.7+386.8+674.5+387.1+674.7L387.1+674.7C389.1+675.7+390.9+676.1+392.6+676.1L392.6+676.1C396.3+676.1+399.1+674.1+401.1+672.1L401.1+672.1C403.1+670.1+404.1+668.1+404.1+668.1L404.1+668.1C404.3+667.8+404.7+667.6+405+667.8L405+667.8C405.3+668+405.5+668.4+405.3+668.7L405.3+668.7C405.3+668.7+401+677.5+392.6+677.5L392.6+677.5C390.7+677.4+388.7+676.9+386.5+675.9L386.5+675.9Z" opacity="1" fill="#231f20"/>
<path d="M390.3+690.9C389.9+689.9+389.7+688.8+389.7+687.8L389.7+687.8C389.7+682.9+393+677.5+394.5+675.2L394.5+675.2C394.2+675.2+394+675.1+393.7+675L393.7+675C393.2+674.9+392.4+674.4+392.4+673.5L392.4+673.5C392.4+672.9+392.7+672.4+393.2+671.9L393.2+671.9C393.8+671.2+394.6+670.8+395.3+670.8L395.3+670.8C396.8+670.8+397.8+672.2+397.8+673.7L397.8+673.7C397.8+674.6+397.5+675.7+396.7+676.6L396.7+676.6C396.6+676.7+396.6+676.8+396.5+676.8L396.5+676.8C396.6+676.8+396.8+676.9+397+677L397+677C397.6+677.2+398.5+677.3+399.4+677.7L399.4+677.7C401.2+678.3+403.3+680+403.2+683.4L403.2+683.4C403.2+684.4+403.1+685.5+402.7+686.8L402.7+686.8C402.6+687.2+402.2+687.4+401.8+687.3L401.8+687.3C401.4+687.2+401.2+686.8+401.3+686.4L401.3+686.4C401.6+685.2+401.7+684.2+401.7+683.3L401.7+683.3C401.7+678.3+397.5+679+395.5+677.8L395.5+677.8C395.2+677.6+394.9+677.2+394.9+676.8L394.9+676.8C394.9+676.7+394.9+676.6+394.9+676.5L394.9+676.5C394.5+677.2+394+678+393.5+678.9L393.5+678.9C392.2+681.4+390.9+684.6+390.9+687.5L390.9+687.5C390.9+688.4+391+689.3+391.4+690.1L391.4+690.1L391.4+690.1C391.5+690.5+391.4+690.9+391+691L391+691C390.9+691+390.8+691+390.7+691L390.7+691C390.7+691.3+390.4+691.2+390.3+690.9L390.3+690.9ZM396.5+674.1C396.5+674+396.5+673.9+396.5+673.7L396.5+673.7C396.5+672.7+395.9+672.2+395.4+672.2L395.4+672.2C395.1+672.2+394.8+672.3+394.3+672.8L394.3+672.8C394+673.2+393.9+673.4+393.9+673.5L393.9+673.5L393.9+673.5C393.9+673.5+394+673.6+394.2+673.6L394.2+673.6C394.5+673.7+395+673.7+395.4+673.7L395.4+673.7C395.7+673.7+395.9+673.7+395.9+673.7L395.9+673.7C395.9+673.7+395.9+673.7+396+673.7L396+673.7C396.1+673.8+396.3+673.9+396.5+674.1L396.5+674.1Z" opacity="1" fill="#231f20"/>
<path d="M359+915C359+915+366+934.2+371.6+936C371.6+936+373+930.4+381.4+932.7C389.8+935+395.4+938.8+394+943C394+943+372.5+951.4+362.2+937.9C351.9+924.4+355.2+927.2+355.2+927.2C355.2+927.2+350.1+916.9+359+915Z" opacity="1" fill="#231f20"/>
</g>
<g opacity="1">
<path d="M15.5+740.1L34+740.1L34+736.7L15.5+736.7C14.7+736.7+14.1+737.3+14.1+738.1L14.1+738.7C14.1+739.5+14.7+740.1+15.5+740.1Z" opacity="1" fill="#ef3b24"/>
<path d="M184.1+740.1L165.5+740.1L165.5+736.7L184.1+736.7C184.9+736.7+185.5+737.3+185.5+738.1L185.5+738.7C185.5+739.5+184.9+740.1+184.1+740.1Z" opacity="1" fill="#ef3b24"/>
<path d="M137.4+915.1L141.7+914.6L114.3+770C114.2+769.3+113.5+768.9+112.9+768.9L111.2+769.1C110.4+769.2+109.9+769.9+110+770.7L137.4+915.1Z" opacity="1" fill="#64431c"/>
<path d="M146.3+919.3L143.4+911.6C143.3+911.3+142.9+911.2+142.6+911.3L135.3+914.3C135.1+914.4+135+914.6+135+914.7L135.5+919.2C135.5+919.3+135.7+919.4+135.8+919.4L146+919.4C146.3+919.5+146.3+919.4+146.3+919.3Z" opacity="1" fill="#a3703b"/>
<g opacity="1">
<path d="M128.4+678.6L125.4+678.6C125.4+669+116.4+668.1+116+668L116.3+665.7C116.3+665.7+128.4+666.8+128.4+678.6Z" opacity="1" fill="#c3301b"/>
<path d="M76.4+678.6L73.4+678.6C73.4+666.8+85.4+665.7+85.5+665.7L85.8+668L85.6+666.8L85.8+668C85.5+668+76.4+668.9+76.4+678.6Z" opacity="1" fill="#c3301b"/>
</g>
<path d="M115.5+670.2L86.3+670.2C85.5+670.2+84.9+669.6+84.9+668.8L84.9+665.5C84.9+664.7+85.5+664.1+86.3+664.1L115.5+664.1C116.3+664.1+116.9+664.7+116.9+665.5L116.9+668.8C116.9+669.6+116.3+670.2+115.5+670.2Z" opacity="1" fill="#ccc49f"/>
<path d="M92+726.9L106.9+726.9L106.9+726.9L106.9+732L106.9+732L92+732L92+732L92+726.9L92+726.9Z" opacity="1" fill="#c3301b"/>
<path d="M168.5+699.8C165.2+693.6+159.3+688.8+151.9+685.3C136.7+678+118+676+100.4+676C82.2+676+62.9+677.8+47.2+685.3C39.6+689+33.1+694.3+30.1+700.8C29.5+702.1+25.7+715.1+26+715.1L99.5+714.1L173+715.1C173.3+715.1+169.5+702+168.9+700.6C168.8+700.4+168.6+700.1+168.5+699.8Z" opacity="1" fill="#ef3b24"/>
<path d="M26+715.2C26+707.91+58.9071+702+99.5+702C140.093+702+173+707.91+173+715.2C173+722.49+140.093+728.4+99.5+728.4C58.9071+728.4+26+722.49+26+715.2Z" opacity="1" fill="#520000"/>
<path d="M99.5+730.9L26+730.9L26+733.9L30.1+737.1C30.1+737.1+38.2+787.8+99.5+787.8C160.8+787.8+168.9+737.1+168.9+737.1L173+733.9L173+730.9L99.5+730.9Z" opacity="1" fill="#ef3b24"/>
<path d="M64.9+780.9C74+785.1+85.3+787.8+99.5+787.8C160.8+787.8+168.9+737.1+168.9+737.1L173+733.9L173+730.9L152.5+730.9C152.5+730.9+143.9+790.4+64.9+780.9Z" opacity="1" fill="#c3301b"/>
<g opacity="1">
<path d="M137.5+775.5C138.2+777.4+135.7+779.7+131.9+780.5C128.1+781.4+124.4+780.5+123.6+778.6C122.8+776.7+125.4+774.4+129.2+773.6C133+772.8+136.7+773.6+137.5+775.5Z" opacity="1" fill="#a3703b"/>
<path d="M61.5+775.5C60.8+777.4+63.3+779.7+67.1+780.5C70.9+781.3+74.6+780.5+75.4+778.6C76.2+776.7+73.6+774.4+69.8+773.6C66+772.8+62.3+773.6+61.5+775.5Z" opacity="1" fill="#a3703b"/>
</g>
<path d="M14.1+918L9.9+917L66.1+777.2C66.3+776.6+67+776.3+67.6+776.4L69.2+776.8C70+777+70.4+777.8+70.1+778.6L14.1+918Z" opacity="1" fill="#64431c"/>
<path d="M5.2+922.6L8.1+914.9C8.2+914.6+8.6+914.5+8.9+914.6L16.2+917.6C16.4+917.7+16.5+917.9+16.5+918L16+922.5C16+922.6+15.8+922.7+15.7+922.7L5.4+922.7C5.3+922.8+5.2+922.7+5.2+922.6Z" opacity="1" fill="#a3703b"/>
<path d="M185.2+918L189.4+917L133.2+777.2C133+776.6+132.3+776.3+131.7+776.4L130.1+776.8C129.3+777+128.9+777.8+129.2+778.6L185.2+918Z" opacity="1" fill="#64431c"/>
<path d="M194.1+922.6L191.2+914.9C191.1+914.6+190.7+914.5+190.4+914.6L183.1+917.6C182.9+917.7+182.8+917.9+182.8+918L183.3+922.5C183.3+922.6+183.5+922.7+183.6+922.7L193.8+922.7C194+922.8+194.1+922.7+194.1+922.6Z" opacity="1" fill="#a3703b"/>
</g>
<path d="M0+0L1400+0L1400+0L1400+980L1400+980L0+980L0+980L0+0L0+0Z" opacity="1" fill="none"/>
</g>
</g>
<g id="Layer 1" vectornator:layerName="Layer 1">
<text font-size="105" font-family="'Sathu'" transform="matrix(1 0 0 1 -0.865911 -9.03074)" opacity="1" fill="#cc5500">
<textPath xlink:href="#TextPath_2" method="align" startOffset="46.7848pt">
<![CDATA[TOOL SHARE]]></textPath>
</text>
</g>
</svg>
