<?xml version="1.0" encoding="UTF-8" standalone="no"?> <!-- Created with Vectornator for iOS (http://vectornator.io/) --><!DOCTYPE svg PUBLIC "-//W3C//DTD SVG 1.1//EN" "http://www.w3.org/Graphics/SVG/1.1/DTD/svg11.dtd">
<svg height="100%" style="fill-rule:nonzero;clip-rule:evenodd;stroke-linecap:round;stroke-linejoin:round;" xmlns:xlink="http://www.w3.org/1999/xlink" xmlns="http://www.w3.org/2000/svg" xml:space="preserve" width="100%" xmlns:vectornator="http://vectornator.io" version="1.1" viewBox="0 0 841.995 595.35">
<metadata>
<vectornator:setting key="DimensionsVisible" value="1"/>
<vectornator:setting key="PencilOnly" value="0"/>
<vectornator:setting key="SnapToPoints" value="0"/>
<vectornator:setting key="OutlineMode" value="0"/>
<vectornator:setting key="CMYKEnabledKey" value="0"/>
<vectornator:setting key="RulersVisible" value="1"/>
<vectornator:setting key="SnapToEdges" value="0"/>
<vectornator:setting key="GuidesVisible" value="1"/>
<vectornator:setting key="DisplayWhiteBackground" value="0"/>
<vectornator:setting key="doHistoryDisabled" value="0"/>
<vectornator:setting key="SnapToGuides" value="1"/>
<vectornator:setting key="TimeLapseWatermarkDisabled" value="0"/>
<vectornator:setting key="Units" value="Millimeters"/>
<vectornator:setting key="DynamicGuides" value="0"/>
<vectornator:setting key="IsolateActiveLayer" value="0"/>
<vectornator:setting key="SnapToGrid" value="0"/>
</metadata>
<defs/>
<g id="Layer 2" vectornator:layerName="Layer 2">
<g opacity="1">
<g>
<path stroke-linecap="square" stroke-width="7" stroke="#cc5500" d="M241.837+100.929C219.608+100.97+199.858+101.394+166.865+101.041C166.614+139.284+166.323+168.592+166.543+196.399" fill="none" stroke-linejoin="miter"/>
<path d="M239.331+103.373L258.886+123.414L261.33+125.919L263.835+123.475L283.876+103.921L286.381+101.477L283.937+98.9714L264.383+78.9306L261.938+76.4255L259.433+78.8697L239.392+98.4239L236.887+100.868L239.331+103.373ZM244.342+98.4847L244.281+103.434L264.322+83.88L259.372+83.8191L278.926+103.86L278.987+98.9106L258.946+118.465L263.896+118.526L244.342+98.4847Z" fill="#cc5500"/>
</g>
</g>
<g opacity="1">
<g>
<path stroke-linecap="square" stroke-width="7" stroke="#cc5500" d="M674.926+149.831C674.78+133.521+674.772+123.415+674.622+100.172C623.246+100.731+603.675+99.9171+557.043+100.343" fill="none" stroke-linejoin="miter"/>
<path d="M672.422+147.385L652.859+167.418L650.414+169.922L652.918+172.368L672.951+191.93L675.456+194.375L677.901+191.871L697.463+171.838L699.908+169.334L697.404+166.889L677.371+147.326L674.867+144.881L672.422+147.385ZM677.43+152.276L672.48+152.335L692.514+171.897L692.455+166.947L672.893+186.98L677.842+186.922L657.809+167.359L657.868+172.309L677.43+152.276Z" fill="#cc5500"/>
</g>
</g>
<g opacity="1">
<g>
<path stroke-linecap="square" stroke-width="7" stroke="#cc5500" d="M588.797+485.301C623.712+485.079+653.896+485.114+674.012+484.898C673.933+447.526+674.003+408.885+674.003+381.851" fill="none" stroke-linejoin="miter"/>
<path d="M591.248+482.802L571.258+463.196L568.759+460.745L566.309+463.244L546.703+483.234L544.252+485.732L546.75+488.183L566.74+507.789L569.239+510.24L571.69+507.741L591.296+487.751L593.747+485.253L591.248+482.802ZM586.347+487.799L586.299+482.85L566.692+502.84L571.642+502.792L551.652+483.186L551.7+488.135L571.306+468.145L566.357+468.193L586.347+487.799Z" fill="#cc5500"/>
</g>
</g>
<g opacity="1">
<g>
<path stroke-linecap="square" stroke-width="7" stroke="#cc5500" d="M167.436+425.357C167.284+441.139+167.319+455.432+166.996+484.898C205.479+485.145+232.589+485.421+286.211+485.409" fill="none" stroke-linejoin="miter"/>
<path d="M169.862+427.879L190.045+408.472L192.568+406.046L190.142+403.523L170.734+383.34L168.308+380.817L165.785+383.243L145.603+402.651L143.08+405.077L145.506+407.6L164.913+427.783L167.339+430.305L169.862+427.879ZM165.01+422.834L169.959+422.931L150.552+402.748L150.455+407.697L170.637+388.289L165.689+388.192L185.096+408.375L185.193+403.426L165.01+422.834Z" fill="#cc5500"/>
</g>
</g>
</g>
<g id="Layer 1" vectornator:layerName="Layer 1">
<g opacity="1">
<g opacity="1">
<path d="M524.721+508.766L509.328+508.766C508.802+508.766+508.341+509.227+508.341+509.753L508.341+515.213L524.721+515.213L524.721+508.766Z" opacity="1" fill="#017a7a"/>
<path d="M521.366+513.503L512.551+513.503C512.222+513.503+511.893+513.766+511.893+514.16L511.893+515.213L521.958+515.213L521.958+514.16C522.024+513.766+521.761+513.503+521.366+513.503Z" opacity="0.3" fill="#008a8c"/>
<path d="M527.944+505.741L527.944+505.741C529.72+505.741+531.167+507.188+531.167+508.964L531.167+515.213L524.721+515.213L524.721+508.964C524.721+507.188+526.168+505.741+527.944+505.741Z" opacity="1" fill="#008a8c"/>
<path d="M527.878+507.319L527.878+507.319C528.865+507.319+529.588+508.109+529.588+509.03L529.588+515.147L526.102+515.147L526.102+509.03C526.168+508.109+526.891+507.319+527.878+507.319Z" opacity="0.3" fill="#008a8c"/>
<path d="M514.788+505.149L514.788+508.766L510.183+508.766L510.183+505.346L511.301+505.543C512.551+505.741+513.735+505.609+514.788+505.149Z" opacity="1" fill="#029b9b"/>
</g>
<path d="M507.026+489.164L507.026+509.819C507.026+511.332+506.434+512.647+505.447+513.634C504.46+514.621+503.079+515.213+501.632+515.213L350.862+515.213L350.862+489.887L382.174+489.887C382.306+489.887+382.437+489.887+382.503+489.887C384.74+489.69+386.516+487.98+386.779+485.809C388.029+474.429+395.067+443.249+433.746+439.96C435.785+439.763+437.89+439.828+439.929+440.026C444.468+440.486+452.691+441.999+460.979+446.538C461.045+446.604+461.177+446.67+461.242+446.67C461.374+446.735+461.506+446.801+461.637+446.867C461.769+446.933+461.9+446.998+461.966+447.064C462.163+447.196+462.295+447.262+462.492+447.393C463.15+447.788+463.742+448.182+464.4+448.577C464.531+448.643+464.663+448.709+464.729+448.84C464.86+448.906+464.992+448.972+465.058+449.103C465.65+449.498+466.176+449.893+466.768+450.353C467.031+450.551+467.36+450.814+467.623+451.011C467.886+451.208+468.149+451.406+468.412+451.669C468.478+451.735+468.61+451.8+468.676+451.932C469.004+452.195+469.333+452.524+469.662+452.787C469.728+452.853+469.728+452.853+469.794+452.919C469.925+452.984+469.991+453.116+470.123+453.248C470.254+453.379+470.32+453.445+470.452+453.576C470.517+453.642+470.649+453.774+470.715+453.84C470.846+453.905+470.912+454.037+471.044+454.103C471.702+454.761+472.359+455.418+473.017+456.142C473.083+456.208+473.149+456.273+473.149+456.339C473.214+456.405+473.28+456.471+473.28+456.537C473.346+456.602+473.478+456.734+473.543+456.8C473.543+456.8+473.543+456.8+473.609+456.866C473.806+457.063+473.938+457.26+474.135+457.523C474.201+457.589+474.201+457.589+474.267+457.655C474.333+457.786+474.464+457.852+474.53+457.984C474.596+458.05+474.662+458.181+474.793+458.313C474.859+458.444+474.925+458.51+475.056+458.642C475.188+458.773+475.188+458.839+475.319+458.971C475.648+459.365+475.977+459.826+476.24+460.286C476.306+460.352+476.306+460.418+476.372+460.483C476.503+460.615+476.569+460.747+476.701+460.944C476.832+461.075+476.898+461.273+477.03+461.404C478.148+461.01+479.398+460.483+480.713+459.891C483.476+458.642+486.568+456.931+489.989+454.629C490.515+454.3+491.173+454.366+491.633+454.761L492.094+455.155L492.159+455.155C492.686+455.616+492.751+456.405+492.291+456.931C490.909+458.576+487.949+462.062+484.134+465.417C483.082+466.338+482.029+467.259+480.845+468.114C483.147+473.113+484.792+479.099+485.647+486.072C485.91+488.374+487.884+490.151+490.186+490.216L490.252+490.216L504.526+490.216C505.447+489.887+506.302+489.624+507.026+489.164Z" opacity="1" fill="#017a7a"/>
<g opacity="1">
<path d="M494.198+508.832L496.961+500.083C495.975+500.544+495.119+500.873+494.33+501.07C490.252+501.859+489.989+499.557+489.989+499.557C489.528+496.794+495.514+493.834+495.514+493.834L496.172+484.888C492.225+487.388+490.449+487.125+489.791+486.73C489.462+486.533+489.396+486.401+489.396+486.401C487.949+484.099+491.304+480.349+492.554+479.034L492.554+479.034L492.554+479.034L490.778+470.943C486.568+476.139+484.463+474.034+484.463+474.034C482.687+472.061+485.91+465.943+485.91+465.943L481.174+458.642C479.069+464.496+476.438+463.049+476.438+463.049C474.004+461.404+475.451+454.958+475.451+454.958L469.268+448.314C468.281+454.958+465.847+454.497+465.847+454.497C462.755+454.037+462.755+446.867+462.755+446.867L454.927+442.46C455.717+449.103+452.625+448.774+452.625+448.774C449.862+448.643+448.218+442.131+448.218+442.131L439.601+439.499C441.903+445.814+439.601+446.472+439.601+446.472C436.509+447.59+432.759+441.276+432.759+441.276L424.011+441.276C427.563+445.814+425.655+447.788+425.655+447.788C423.353+449.761+417.893+444.367+417.893+444.367L409.144+446.472C414.209+449.893+412.565+452.458+412.565+452.458C411.249+454.432+404.474+451.34+404.474+451.34L396.843+455.879C402.369+457.194+401.382+460.286+401.382+460.286C400.922+462.917+393.094+461.602+393.094+461.602L386.581+467.785C393.554+467.456+392.436+471.535+392.436+471.535C391.975+473.968+384.476+474.429+384.476+474.429L380.595+481.402C387.239+480.941+386.45+484.296+386.45+484.296C386.121+486.927+379.938+488.703+379.938+488.703L377.175+497.452C381.977+495.281+383.621+496.334+384.082+497.518L384.082+497.518C384.147+497.65+384.147+497.781+384.147+497.781C384.608+500.478+378.622+503.57+378.622+503.57L378.03+512.516C381.648+510.214+383.424+510.214+384.213+510.543C384.674+510.74+384.805+511.003+384.805+511.003C386.384+513.437+382.371+517.713+381.45+518.634C381.319+518.765+381.253+518.831+381.253+518.831L383.227+526.725C387.437+521.528+389.541+523.633+389.541+523.633C391.318+525.606+388.094+531.724+388.094+531.724L392.831+539.026C394.936+533.171+397.567+534.618+397.567+534.618C400.001+536.263+398.553+542.709+398.553+542.709L404.737+549.353C405.724+542.709+408.157+543.17+408.157+543.17C411.249+543.63+411.249+550.8+411.249+550.8L419.011+555.208C418.222+548.564+421.314+548.893+421.314+548.893C424.076+549.024+425.721+555.536+425.721+555.536L434.338+558.168C432.036+551.853+434.338+551.195+434.338+551.195C437.43+550.077+441.179+556.392+441.179+556.392L449.928+556.392C446.376+551.853+448.284+549.879+448.284+549.879C450.586+547.906+456.111+553.3+456.111+553.3L464.86+551.195C459.795+547.774+461.44+545.209+461.44+545.209C462.755+543.235+469.531+546.327+469.531+546.327L477.161+541.788C471.636+540.473+472.622+537.381+472.622+537.381C473.083+534.75+480.911+536.065+480.911+536.065L487.423+529.882C480.45+530.211+481.569+526.133+481.569+526.133C482.029+523.699+489.528+523.238+489.528+523.238L493.409+516.265C486.765+516.726+487.555+513.371+487.555+513.371C488.015+510.608+494.198+508.832+494.198+508.832Z" opacity="1" fill="#767677"/>
<path d="M485.252+498.702C485.252+498.965+485.252+499.162+485.252+499.426C484.858+525.672+463.479+546.853+437.101+546.853C420.524+546.853+405.921+538.499+397.304+525.738C396.251+524.225+395.33+522.646+394.475+521.002C391.054+514.489+389.081+507.188+389.015+499.36C389.015+499.097+389.015+498.899+389.015+498.636C389.015+498.373+389.015+498.176+389.015+497.913C389.41+471.666+410.789+450.485+437.167+450.485C453.875+450.485+468.61+459.036+477.227+471.929C478.28+473.508+479.266+475.153+480.121+476.929C483.345+483.309+485.187+490.545+485.252+498.176C485.252+498.373+485.252+498.505+485.252+498.702Z" opacity="1" fill="#606060"/>
<path d="M425.655+498.702C425.655+492.381+430.78+487.256+437.101+487.256C443.422+487.256+448.547+492.381+448.547+498.702C448.547+505.023+443.422+510.148+437.101+510.148C430.78+510.148+425.655+505.023+425.655+498.702Z" opacity="1" fill="#545454"/>
<path d="M428.747+498.702C428.747+494.088+432.487+490.348+437.101+490.348C441.715+490.348+445.455+494.088+445.455+498.702C445.455+503.316+441.715+507.056+437.101+507.056C432.487+507.056+428.747+503.316+428.747+498.702Z" opacity="1" fill="#404042"/>
<path d="M430.062+498.702C430.062+494.815+433.214+491.663+437.101+491.663C440.988+491.663+444.139+494.815+444.139+498.702C444.139+502.589+440.988+505.741+437.101+505.741C433.214+505.741+430.062+502.589+430.062+498.702Z" opacity="0.3" fill="#404042"/>
<path d="M430.983+498.702C430.983+495.323+433.722+492.584+437.101+492.584C440.48+492.584+443.218+495.323+443.218+498.702C443.218+502.081+440.48+504.82+437.101+504.82C433.722+504.82+430.983+502.081+430.983+498.702Z" opacity="1" fill="#b2b4b0"/>
<path d="M432.825+498.702C432.825+496.341+434.739+494.426+437.101+494.426C439.462+494.426+441.377+496.341+441.377+498.702C441.377+501.063+439.462+502.978+437.101+502.978C434.739+502.978+432.825+501.063+432.825+498.702Z" opacity="0.6" fill="#b2b4b0"/>
</g>
<path d="M377.504+507.582L357.046+507.582C352.704+507.582+349.152+504.03+349.152+499.689L349.152+499.689C349.152+495.347+352.704+491.795+357.046+491.795L381.385+491.795C382.963+491.795+384.542+491.335+385.792+490.348C386.713+489.69+387.437+488.769+387.634+487.651L387.634+487.585L387.7+487.585C387.7+487.651+388.489+500.675+377.504+507.582Z" opacity="1" fill="#029b9b"/>
<g opacity="1">
<path d="M347.902+490.414L307.974+476.731L312.447+461.799L353.099+471.864C349.415+479.889+348.231+486.664+347.902+489.822C347.837+490.019+347.902+490.216+347.902+490.414Z" opacity="1" fill="#505051"/>
<path d="M305.671+479.034L305.671+479.034C306.461+479.297+307.316+478.836+307.579+478.047L312.841+460.549C313.104+459.76+312.644+458.905+311.855+458.642L311.855+458.642C311.065+458.378+310.21+458.839+309.947+459.628L304.684+477.126C304.421+477.981+304.882+478.77+305.671+479.034Z" opacity="1" fill="#404042"/>
</g>
<path d="M531.957+524.028L333.628+524.028C332.115+524.028+330.931+522.843+330.931+521.331L330.931+517.91C330.931+516.397+332.115+515.213+333.628+515.213L531.957+515.213C533.47+515.213+534.654+516.397+534.654+517.91L534.654+521.331C534.654+522.844+533.404+524.028+531.957+524.028Z" opacity="1" fill="#404042"/>
<path d="M436.18+420.226C421.642+420.357+408.026+424.501+396.383+431.606C393.291+433.513+390.134+435.289+386.976+437C354.217+454.695+348.823+482.191+347.902+489.822C347.771+490.874+348.626+491.861+349.744+491.861L381.911+491.861C384.805+491.861+387.371+489.822+388.029+486.993C393.094+464.628+413.091+447.985+436.969+447.985C460.585+447.985+480.385+464.299+485.779+486.204C486.305+488.374+488.278+489.887+490.515+489.887L514.525+489.887C510.315+450.485+476.569+419.831+436.18+420.226Z" opacity="1" fill="#008a8c"/>
<path d="M514.525+489.953L508.67+489.953C504.592+453.971+474.004+426.08+436.969+426.08C419.998+426.08+404.342+431.935+392.041+441.736C389.278+443.907+385.792+444.959+382.306+444.433C382.108+444.433+381.977+444.367+381.779+444.367C381.779+444.367+376.648+443.315+372.11+447.064C376.32+443.512+381.187+440.157+386.91+437.066C390.068+435.355+393.225+433.579+396.317+431.672C407.894+424.567+421.511+420.423+436.114+420.291C476.569+419.831+510.315+450.485+514.525+489.953Z" opacity="0.3" fill="#008a8c"/>
<path d="M522.879+489.953L514.459+489.953C513.604+481.862+511.499+474.1+508.341+466.93L508.341+466.93L515.709+470.745C516.959+471.403+517.88+472.39+518.472+473.64C519.787+476.402+521.892+482.06+522.879+489.953Z" opacity="1" fill="#008a8c"/>
<path d="M516.761+482.915L513.538+483.441C512.749+479.428+511.696+475.481+510.315+471.732L513.998+473.64C514.788+474.034+515.38+474.692+515.709+475.481C516.235+476.665+517.024+478.705+517.682+481.467C517.88+482.06+517.419+482.783+516.761+482.915Z" opacity="0.3" fill="#008a8c"/>
<path d="M497.948+489.953L506.105+489.953L506.105+489.953L506.105+515.213L506.105+515.213L497.948+515.213L497.948+515.213L497.948+489.953L497.948+489.953Z" opacity="1" fill="#404042"/>
<path d="M356.059+491.861L356.059+515.213L347.902+515.213L347.902+490.085C347.902+491.071+348.692+491.927+349.744+491.927L356.059+491.927L356.059+491.861Z" opacity="1" fill="#404042"/>
<path d="M517.419+484.757C514.393+484.757+511.959+487.19+511.959+490.216L511.959+491.466C511.959+491.992+511.762+492.453+511.367+492.782L507.947+495.742C507.486+496.137+506.894+496.268+506.302+496.071L506.171+496.005L506.171+504.491L511.367+505.477C513.67+505.938+516.038+504.951+517.287+502.912L521.432+496.465C522.418+494.953+522.945+493.176+522.945+491.335L522.945+490.151C522.879+487.256+520.445+484.757+517.419+484.757Z" opacity="1" fill="#505051"/>
<path d="M511.959+490.282C511.959+487.267+514.404+484.822+517.419+484.822C520.434+484.822+522.879+487.267+522.879+490.282C522.879+493.297+520.434+495.742+517.419+495.742C514.404+495.742+511.959+493.297+511.959+490.282Z" opacity="0.3" fill="#404042"/>
<path d="M502.816+426.475L501.105+429.961C498.869+434.5+493.343+436.342+488.804+433.974L480.45+429.501L480.45+429.501C480.121+429.369+474.135+427.133+471.307+428.317L471.307+428.317C460.65+423.054+448.678+420.16+436.048+420.291C432.759+420.357+429.47+420.555+426.247+421.015L415.788+411.608C414.604+410.556+412.828+410.688+411.775+411.872L403.421+421.476C402.698+422.331+402.434+423.449+402.763+424.501L402.829+424.83C402.961+425.225+402.566+425.488+402.237+425.291L398.488+422.988C396.185+421.607+393.225+421.936+391.318+423.712C391.12+423.909+390.923+424.107+390.726+424.37C385.792+430.553+375.925+441.933+366.387+447.525C366.321+447.525+366.321+447.59+366.255+447.59C365.795+447.854+365.4+448.117+365.071+448.446C363.427+450.024+362.703+452.458+363.361+454.695L363.624+455.484C357.375+462.786+353.559+470.219+351.323+476.402L344.153+469.035C343.561+468.443+343.1+467.654+342.837+466.864L337.772+452.392C337.443+451.472+337.509+450.485+337.838+449.564C338.89+447.064+341.39+441.539+346.192+434.105C346.587+433.448+347.047+432.79+347.508+432.132C355.401+420.291+368.689+404.175+389.87+387.927C390.134+387.73+390.462+387.533+390.791+387.335C392.765+386.151+395.067+385.559+397.369+385.691L397.567+385.691L408.421+386.349C410.328+386.48+412.17+387.072+413.815+388.125L443.284+407.07C445.192+408.319+447.363+409.043+449.665+409.24L465.123+410.753C467.228+410.951+469.268+410.688+471.241+410.03C471.307+410.03+471.373+409.964+471.438+409.964L476.503+408.122L476.503+408.122L477.424+407.793C480.582+406.609+484.068+406.675+487.16+407.925L497.29+412.003C502.947+414.174+505.513+420.884+502.816+426.475Z" opacity="1" fill="#008a8c"/>
<path d="M397.698+406.806L388.949+416.082C387.897+417.2+386.318+417.726+384.74+417.397L378.227+416.016C376.714+415.687+375.136+416.213+374.083+417.331L358.493+433.645C357.441+434.697+355.993+435.224+354.546+434.961C352.967+434.697+350.665+433.974+347.573+432.132C349.152+429.764+350.928+427.264+352.902+424.567C354.02+423.12+355.138+421.673+356.388+420.16C357.506+418.779+358.69+417.397+359.94+415.95C361.124+414.569+362.374+413.187+363.69+411.74C364.874+410.424+366.189+409.109+367.505+407.727C368.755+406.412+370.136+405.096+371.518+403.715C372.833+402.465+374.149+401.215+375.53+399.899C376.912+398.65+378.293+397.4+379.74+396.15C382.898+393.387+386.318+390.624+389.936+387.862C390.199+387.664+390.528+387.467+390.857+387.27L390.857+387.27L396.712+393.65C397.304+394.308+397.698+395.098+397.83+395.953L398.948+402.925C399.08+404.373+398.685+405.82+397.698+406.806Z" opacity="1" fill="#404042"/>
<path d="M391.252+423.778C391.054+423.975+390.857+424.173+390.66+424.436C385.726+430.619+375.859+441.999+366.321+447.59L363.295+440.091C362.769+438.776+363.032+437.263+364.019+436.21L376.385+422.988C377.241+422.068+378.425+421.673+379.674+421.87L391.252+423.778Z" opacity="1" fill="#404042"/>
<path d="M363.295+454.761L363.558+455.55C357.309+462.852+353.494+470.285+351.257+476.468L344.087+469.101C343.495+468.509+343.035+467.719+342.771+466.93L337.772+452.392C337.443+451.472+337.509+450.485+337.838+449.564C338.89+447.064+341.39+441.539+346.192+434.105C349.218+436.868+353.888+437.789+357.046+438.118C359.085+438.315+360.927+439.631+361.782+441.539L365.005+448.511C363.295+450.09+362.637+452.524+363.295+454.761Z" opacity="1" fill="#404042"/>
<path d="M394.08+395.755L394.08+395.755C394.343+396.018+394.541+396.347+394.607+396.742L395.659+403.254C395.725+403.781+395.593+404.373+395.199+404.767L387.239+413.319C386.844+413.779+386.252+413.977+385.66+413.845L379.411+412.792C377.964+412.529+377.438+410.819+378.359+409.767L391.581+395.755C392.173+395.032+393.357+395.032+394.08+395.755Z" opacity="0.3" fill="#404042"/>
<path d="M422.037+417.134C422.037+417.134+417.038+419.568+413.288+423.909C410.854+424.699+408.552+425.554+406.25+426.541L402.632+423.712C402.632+422.923+402.895+422.133+403.421+421.476L411.775+411.806C412.828+410.622+414.604+410.49+415.788+411.543L422.037+417.134Z" opacity="1" fill="#404042"/>
<path d="M502.816+426.475L501.105+429.961C498.869+434.5+493.343+436.342+488.804+433.974L480.45+429.501L480.45+429.501C461.308+419.042+476.043+408.188+476.372+407.991L476.372+407.991L477.293+407.662C480.45+406.478+483.937+406.543+487.028+407.793L497.159+411.872C502.947+414.174+505.513+420.884+502.816+426.475Z" opacity="0.3" fill="#008a8c"/>
<path d="M471.109+409.964L468.544+412.661C466.505+414.832+463.61+415.884+460.65+415.621L447.56+414.305C444.995+414.042+442.495+413.187+440.324+411.74L411.381+392.861C409.802+391.874+408.026+391.282+406.118+391.282L406.118+391.282C402.698+391.282+399.54+389.44+397.83+386.48L397.369+385.691L397.501+385.625L408.355+386.283C410.262+386.414+412.104+387.006+413.749+388.059L443.219+407.004C445.126+408.254+447.297+408.977+449.599+409.175L465.058+410.688C467.097+410.885+469.202+410.622+471.109+409.964Z" opacity="0.3" fill="#008a8c"/>
<path d="M495.909+485.941L493.672+485.941C493.146+485.941+492.686+485.612+492.554+485.085C488.87+472.85+483.805+465.22+480.845+461.47C480.385+460.944+481.042+460.22+481.634+460.549L492.159+466.272C492.62+466.535+492.488+467.193+491.962+467.259L490.975+467.39C490.449+467.456+490.186+468.048+490.449+468.509C493.541+473.179+495.975+481.336+496.83+484.691C497.027+485.349+496.567+485.941+495.909+485.941Z" opacity="0.3" fill="#008a8c"/>
<g opacity="1">
<path d="M381.516+401.61C380.99+402.268+380.201+402.597+379.411+402.597C378.753+402.597+378.096+402.399+377.569+401.873L375.464+400.031C376.846+398.781+378.227+397.531+379.674+396.282L381.253+397.663C382.437+398.65+382.569+400.426+381.516+401.61Z" opacity="0.3" fill="#404042"/>
<path d="M374.149+409.964C373.623+410.622+372.833+410.951+372.044+410.951C371.386+410.951+370.728+410.753+370.202+410.227L367.373+407.793C368.623+406.478+370.005+405.162+371.386+403.781L373.886+405.951C375.07+407.004+375.201+408.78+374.149+409.964Z" opacity="0.3" fill="#404042"/>
<path d="M366.847+418.318C366.321+418.976+365.532+419.305+364.742+419.305C364.084+419.305+363.427+419.107+362.9+418.581L359.874+415.95C361.058+414.569+362.308+413.187+363.624+411.74L366.584+414.371C367.768+415.358+367.9+417.2+366.847+418.318Z" opacity="0.3" fill="#404042"/>
<path d="M359.48+426.738C358.954+427.396+358.164+427.725+357.375+427.725C356.717+427.725+356.059+427.527+355.533+427.001L352.836+424.633C353.954+423.186+355.072+421.739+356.322+420.226L359.217+422.791C360.401+423.778+360.532+425.554+359.48+426.738Z" opacity="0.3" fill="#404042"/>
</g>
<g opacity="1">
<path d="M478.148+468.969C478.28+469.101+478.345+469.298+478.477+469.43C477.753+469.693+477.03+469.956+476.372+470.153C475.517+470.416+474.727+470.614+474.004+470.811C472.228+471.271+470.912+471.403+470.254+471.469C469.794+471.535+469.399+471.666+469.07+471.995L464.137+476.205C463.742+476.534+463.742+477.06+464.005+477.455L464.795+478.442L469.07+483.836L469.86+484.822C470.189+485.217+470.715+485.283+471.109+484.954L469.465+486.204C468.873+486.664+468.018+486.533+467.557+485.941L457.756+473.442C457.296+472.85+457.361+471.995+457.953+471.535L462.69+467.588C463.939+466.535+464.926+465.22+465.452+463.707C466.044+462.128+466.044+460.747+465.781+459.563C465.781+459.497+465.715+459.365+465.715+459.299L465.715+459.299C465.715+459.234+465.65+459.102+465.65+459.036C465.65+458.971+465.584+458.839+465.584+458.773C465.584+458.707+465.518+458.642+465.518+458.576C465.387+458.247+465.255+457.918+465.058+457.655C464.992+457.589+464.992+457.523+464.926+457.458C464.86+457.392+464.86+457.326+464.795+457.26C464.729+457.194+464.729+457.129+464.663+457.063C464.597+456.997+464.597+456.931+464.531+456.866C464.531+456.8+464.466+456.8+464.466+456.734C464.466+456.734+464.466+456.734+464.4+456.668C464.334+456.602+464.334+456.537+464.268+456.537C464.137+456.339+464.005+456.208+463.874+456.076C463.808+456.01+463.808+456.01+463.742+455.945C463.216+455.418+462.755+455.089+462.558+454.958L462.558+454.958L462.558+454.958C462.624+455.024+462.755+455.089+462.821+455.089C462.953+455.155+463.084+455.221+463.216+455.287C463.347+455.353+463.479+455.418+463.545+455.484C463.742+455.616+463.874+455.681+464.071+455.813C464.729+456.208+465.321+456.602+465.979+456.997C466.11+457.063+466.242+457.129+466.307+457.26C466.439+457.326+466.571+457.392+466.636+457.523C467.228+457.918+467.755+458.313+468.347+458.773C468.61+458.971+468.939+459.234+469.202+459.431C469.465+459.628+469.728+459.826+469.991+460.089C470.123+460.155+470.189+460.22+470.254+460.352C470.583+460.615+470.912+460.944+471.241+461.207C471.307+461.273+471.307+461.273+471.373+461.339C471.504+461.404+471.57+461.536+471.702+461.668C471.833+461.799+471.899+461.865+472.03+461.996C472.096+462.062+472.228+462.194+472.294+462.26C472.425+462.325+472.491+462.457+472.622+462.523C473.28+463.18+473.938+463.838+474.596+464.562C474.662+464.628+474.727+464.693+474.727+464.759C474.793+464.825+474.859+464.891+474.859+464.957C474.925+465.022+475.056+465.154+475.122+465.22C475.122+465.22+475.122+465.22+475.188+465.285C475.385+465.483+475.517+465.68+475.714+465.943C475.78+466.009+475.78+466.009+475.846+466.075C475.911+466.206+476.043+466.272+476.109+466.404C476.175+466.469+476.24+466.601+476.372+466.733C476.438+466.864+476.503+466.93+476.635+467.062C476.767+467.193+476.767+467.259+476.898+467.39C477.227+467.785+477.556+468.246+477.819+468.706C477.885+468.772+477.885+468.838+477.951+468.903C477.951+468.706+478.082+468.838+478.148+468.969Z" opacity="1" fill="#029b9b"/>
<path d="M478.148+468.969C478.28+469.101+478.345+469.298+478.477+469.43C477.753+469.693+477.03+469.956+476.372+470.153C473.412+466.075+469.794+462.523+465.715+459.563C465.715+459.497+465.65+459.365+465.65+459.299L465.65+459.299C465.65+459.234+465.584+459.102+465.584+459.036C465.584+458.971+465.518+458.839+465.518+458.773C465.518+458.707+465.452+458.642+465.452+458.576C465.321+458.247+465.189+457.918+464.992+457.655C464.926+457.589+464.926+457.523+464.86+457.458C464.795+457.392+464.795+457.326+464.729+457.26C464.663+457.194+464.663+457.129+464.597+457.063C464.531+456.997+464.531+456.931+464.466+456.866C464.466+456.8+464.4+456.8+464.4+456.734C464.4+456.734+464.4+456.734+464.334+456.668C464.268+456.602+464.268+456.537+464.203+456.537C464.071+456.339+463.939+456.208+463.808+456.076C463.742+456.01+463.742+456.01+463.676+455.945C463.15+455.418+462.69+455.089+462.492+454.958L462.492+454.958L462.492+454.958C462.558+455.024+462.69+455.089+462.755+455.089C462.887+455.155+463.018+455.221+463.15+455.287C463.282+455.353+463.413+455.418+463.479+455.484C463.676+455.616+463.808+455.681+464.005+455.813C464.663+456.208+465.255+456.602+465.913+456.997C466.044+457.063+466.176+457.129+466.242+457.26C466.373+457.326+466.505+457.392+466.571+457.523C467.163+457.918+467.689+458.313+468.281+458.773C468.544+458.971+468.873+459.234+469.136+459.431C469.399+459.628+469.662+459.826+469.925+460.089C470.057+460.155+470.123+460.22+470.189+460.352C470.517+460.615+470.846+460.944+471.175+461.207C471.241+461.273+471.241+461.273+471.307+461.339C471.438+461.404+471.504+461.536+471.636+461.668C471.767+461.799+471.833+461.865+471.965+461.996C472.03+462.062+472.162+462.194+472.228+462.26C472.359+462.325+472.425+462.457+472.557+462.523C473.214+463.18+473.872+463.838+474.53+464.562C474.596+464.628+474.662+464.693+474.662+464.759C474.727+464.825+474.793+464.891+474.793+464.957C474.859+465.022+474.991+465.154+475.056+465.22C475.056+465.22+475.056+465.22+475.122+465.285C475.319+465.483+475.451+465.68+475.648+465.943C475.714+466.009+475.714+466.009+475.78+466.075C475.846+466.206+475.977+466.272+476.043+466.404C476.109+466.47+476.175+466.601+476.306+466.733C476.372+466.864+476.438+466.93+476.569+467.062C476.701+467.193+476.701+467.259+476.832+467.39C477.161+467.785+477.49+468.246+477.753+468.706C477.819+468.772+477.819+468.838+477.885+468.903C477.951+468.706+478.082+468.838+478.148+468.969Z" opacity="0.6" fill="#029b9b"/>
<path d="M493.672+465.022C491.962+467.127+487.555+472.127+482.226+476.205L471.044+484.888C470.649+485.217+470.057+485.151+469.794+484.757L469.005+483.77L464.729+478.376L463.939+477.389C463.61+476.994+463.676+476.468+464.071+476.139L469.005+471.929C469.333+471.666+469.728+471.469+470.189+471.403C470.912+471.337+472.162+471.14+473.938+470.745C477.819+469.824+483.937+467.654+491.304+462.654C491.83+462.325+492.488+462.391+492.949+462.786L493.409+463.18L493.475+463.18C494.067+463.707+494.133+464.496+493.672+465.022Z" opacity="1" fill="#404042"/>
<path d="M493.672+465.022C491.962+467.127+487.555+472.127+482.226+476.205L471.044+484.888C470.649+485.217+470.057+485.151+469.794+484.757L469.005+483.77L478.806+476.337C485.91+470.943+492.883+463.772+493.409+463.18L493.475+463.18C494.067+463.707+494.133+464.496+493.672+465.022Z" opacity="1" fill="#505051"/>
<path d="M474.07+470.811L464.795+478.442L464.005+477.455C463.676+477.06+463.742+476.534+464.137+476.205L469.07+471.995C469.399+471.732+469.794+471.535+470.254+471.469C470.978+471.403+472.294+471.206+474.07+470.811Z" opacity="1" fill="#505051"/>
</g>
<g opacity="1">
<path d="M404.145+454.958C403.487+455.55+402.698+456.208+401.908+456.931C400.593+458.115+399.211+459.497+397.764+461.075C396.646+462.26+395.462+463.575+394.343+465.022C393.291+466.338+392.304+467.719+391.318+469.166C390.397+470.548+389.476+471.995+388.686+473.508C387.963+474.824+387.305+476.205+386.713+477.652C386.318+478.573+385.924+479.56+385.595+480.547C385.2+481.731+384.147+482.52+382.898+482.52L357.441+482.52C355.862+482.52+354.744+480.941+355.204+479.428C355.401+478.902+355.599+478.31+355.796+477.652C356.256+476.468+356.783+475.087+357.441+473.508C358.033+472.192+358.69+470.745+359.48+469.166C360.138+467.851+360.861+466.469+361.716+465.022C362.44+463.772+363.229+462.457+364.084+461.075C364.94+459.76+365.86+458.378+366.847+456.931C367.834+455.616+368.821+454.234+369.939+452.787C370.465+452.129+371.32+451.735+372.175+451.735L402.895+451.735C404.671+451.735+405.46+453.905+404.145+454.958Z" opacity="0.3" fill="#008a8c"/>
<path d="M372.702+455.089L396.777+455.089C398.093+455.089+398.751+456.734+397.698+457.655C393.488+461.207+386.384+468.311+383.161+477.586C382.832+478.507+381.977+479.099+381.056+479.099L361.19+479.099C359.94+479.099+359.085+477.915+359.48+476.731C360.73+472.916+363.953+464.957+370.991+456.01C371.386+455.353+372.044+455.089+372.702+455.089Z" opacity="1" fill="#404042"/>
<g opacity="1">
<path d="M401.908+456.931C400.593+458.115+399.211+459.497+397.764+461.075L364.15+461.075C365.005+459.76+365.926+458.378+366.913+456.931L401.908+456.931Z" opacity="1" fill="#008a8c"/>
<path d="M394.343+465.022C393.291+466.338+392.304+467.719+391.318+469.167L359.546+469.167C360.203+467.851+360.927+466.47+361.782+465.022L394.343+465.022Z" opacity="1" fill="#008a8c"/>
<path d="M388.686+473.442C387.963+474.758+387.305+476.139+386.713+477.586L355.862+477.586C356.322+476.402+356.849+475.021+357.506+473.442L388.686+473.442Z" opacity="1" fill="#008a8c"/>
</g>
</g>
</g>
<g opacity="1">
<path d="M52.3216+248.901C56.0456+242.345+62.1596+240.646+72.6926+244.245C70.5696+239.44+76.9286+229.977+87.1066+239.999C84.0516+223.91+108.187+222.047+106.995+237.616C113.029+230.092+128.969+234.369+122.769+243.351C132.08+241.042+135.849+243.201+141.968+248.901L52.3216+248.901Z" opacity="1" fill="#e8e8e8"/>
<path d="M322.751+252.502L294.843+252.502C293.798+248.9+294.433+244.828+305.831+248.106C309.398+241.476+316.357+248.095+322.751+252.502" opacity="1" fill="#e8e8e8"/>
<path d="M312.719+230.835L251.687+230.835C253.563+225.196+264.611+220.564+278.354+224.445C282.366+216.986+288.851+218.329+294.929+226.668C302.964+221.648+311.635+228.985+312.719+230.835" opacity="1" fill="#e8e8e8"/>
<path d="M237.407+258.873L237.407+231.176L218.744+231.176L218.744+245.345L237.407+258.873Z" opacity="1" fill="#ffffff"/>
<path d="M237.407+258.873L237.407+231.176L218.744+231.176L218.744+245.345L237.407+258.873Z" opacity="1" fill="#ffffff"/>
<path d="M218.744+244.453L218.744+245.345L237.407+258.873L237.407+244.453L218.744+244.453Z" opacity="1" fill="#cc5500"/>
<path d="M222.65+236.877L221.191+236.877L221.191+233.5L222.65+233.5L222.65+236.877Z" opacity="1" fill="#133b53"/>
<path d="M226.754+236.877L225.295+236.877L225.295+233.5L226.754+233.5L226.754+236.877Z" opacity="1" fill="#133b53"/>
<path d="M230.858+236.877L229.399+236.877L229.399+233.5L230.858+233.5L230.858+236.877Z" opacity="1" fill="#133b53"/>
<path d="M234.962+236.877L233.503+236.877L233.503+233.5L234.962+233.5L234.962+236.877Z" opacity="1" fill="#133b53"/>
<path d="M299.298+362.291L264.342+362.291L264.342+284.455L299.298+306.448L299.298+362.291Z" opacity="1" fill="#cc5500"/>
<path d="M299.298+318.83L264.342+292.504L264.342+284.455L299.298+306.448L299.298+318.83Z" opacity="1" fill="#853d0a"/>
<path d="M264.342+361.503L71.3011+361.503L71.3011+278.664L166.207+209.397L264.342+278.664L264.342+361.503Z" opacity="1" fill="#ffffff"/>
<path d="M166.654+208.194L71.2176+279.452L71.2176+289.042L165.125+219.445L264.342+292.505L264.342+281.999L166.654+208.194Z" opacity="1" fill="#9bb8cc"/>
<path d="M166.654+207.243L63.5876+281.174L68.9006+287.484L166.654+214.497L299.365+313.619L304.315+307.035L166.654+207.243Z" opacity="1" fill="#133b53"/>
<path d="M277.786+298.445L264.342+298.445L264.342+297.695L277.786+297.695L277.786+298.445Z" opacity="1" fill="#853d0a"/>
<path d="M292.544+309.15L264.342+309.15L264.342+308.4L292.544+308.4L292.544+309.15Z" opacity="1" fill="#853d0a"/>
<path d="M299.298+319.856L264.342+319.856L264.342+319.106L299.298+319.106L299.298+319.856Z" opacity="1" fill="#853d0a"/>
<path d="M299.298+330.562L264.342+330.562L264.342+329.812L299.298+329.812L299.298+330.562Z" opacity="1" fill="#853d0a"/>
<path d="M299.298+341.267L264.342+341.267L264.342+340.517L299.298+340.517L299.298+341.267Z" opacity="1" fill="#853d0a"/>
<path d="M299.298+351.973L264.342+351.973L264.342+351.223L299.298+351.223L299.298+351.973Z" opacity="1" fill="#853d0a"/>
<path d="M314.165+362.104L264.342+362.104L264.342+358.935L314.165+358.935L314.165+362.104Z" opacity="1" fill="#133b53"/>
<path d="M136.853+287.425L137.948+287.425L137.948+250.349L137.322+250.349L136.853+287.425Z" opacity="1" fill="#9bb8cc"/>
<path d="M107.771+303.52L90.6261+303.52L90.6261+303.823L107.771+303.823L107.771+303.52Z" opacity="1" fill="#f43d4f"/>
<path d="M243.944+303.52L226.798+303.52L226.798+303.823L243.944+303.823L243.944+303.52Z" opacity="1" fill="#f43d4f"/>
<path d="M87.4661+303.823L87.4661+310.451L90.6261+310.36L90.6261+303.823L87.4661+303.823Z" opacity="1" fill="#9bb8cc"/>
<path d="M247.103+303.823L243.944+303.823L243.944+305.916L247.103+305.824L247.103+303.823Z" opacity="1" fill="#9bb8cc"/>
<path d="M107.771+303.823L107.771+309.863L158.203+308.401L158.203+303.823L107.771+303.823Z" opacity="1" fill="#9bb8cc"/>
<path d="M175.347+303.823L175.347+307.904L226.798+306.413L226.798+303.823L175.347+303.823Z" opacity="1" fill="#9bb8cc"/>
<path d="M226.798+361.989L175.347+361.989L175.347+357.268L226.798+357.268L226.798+361.989Z" opacity="1" fill="#7bbfba"/>
<path d="M226.798+361.989L175.347+361.989L175.347+357.268L226.798+357.268L226.798+361.989Z" opacity="1" fill="#7bbfba"/>
<path d="M222.257+357.268L179.889+357.268L179.889+352.546L222.257+352.546L222.257+357.268Z" opacity="1" fill="#7bbfba"/>
<path d="M222.257+357.268L179.889+357.268L179.889+356.476L222.257+356.476L222.257+357.268Z" opacity="1" fill="#479da3"/>
<path d="M158.202+361.989L107.77+361.989L107.77+316.413L158.202+316.413L158.202+361.989Z" opacity="1" fill="#7bbfba"/>
<path d="M158.202+319.206L107.77+319.206L107.77+318.456L158.202+318.456L158.202+319.206Z" opacity="1" fill="#479da3"/>
<path d="M158.202+321.907L107.77+321.907L107.77+321.157L158.202+321.157L158.202+321.907Z" opacity="1" fill="#479da3"/>
<path d="M158.202+324.609L107.77+324.609L107.77+323.859L158.202+323.859L158.202+324.609Z" opacity="1" fill="#479da3"/>
<path d="M158.202+327.31L107.77+327.31L107.77+326.56L158.202+326.56L158.202+327.31Z" opacity="1" fill="#479da3"/>
<path d="M158.202+330.011L107.77+330.011L107.77+329.261L158.202+329.261L158.202+330.011Z" opacity="1" fill="#479da3"/>
<path d="M158.202+332.712L107.77+332.712L107.77+331.962L158.202+331.962L158.202+332.712Z" opacity="1" fill="#479da3"/>
<path d="M158.202+335.415L107.77+335.415L107.77+334.665L158.202+334.665L158.202+335.415Z" opacity="1" fill="#479da3"/>
<path d="M158.202+338.116L107.77+338.116L107.77+337.366L158.202+337.366L158.202+338.116Z" opacity="1" fill="#479da3"/>
<path d="M158.202+340.817L107.77+340.817L107.77+340.067L158.202+340.067L158.202+340.817Z" opacity="1" fill="#479da3"/>
<path d="M158.202+343.518L107.77+343.518L107.77+342.768L158.202+342.768L158.202+343.518Z" opacity="1" fill="#479da3"/>
<path d="M158.202+346.22L107.77+346.22L107.77+345.47L158.202+345.47L158.202+346.22Z" opacity="1" fill="#479da3"/>
<path d="M158.202+348.921L107.77+348.921L107.77+348.171L158.202+348.171L158.202+348.921Z" opacity="1" fill="#479da3"/>
<path d="M158.202+351.623L107.77+351.623L107.77+350.873L158.202+350.873L158.202+351.623Z" opacity="1" fill="#479da3"/>
<path d="M158.202+354.325L107.77+354.325L107.77+353.575L158.202+353.575L158.202+354.325Z" opacity="1" fill="#479da3"/>
<path d="M158.202+357.026L107.77+357.026L107.77+356.276L158.202+356.276L158.202+357.026Z" opacity="1" fill="#479da3"/>
<path d="M158.202+359.727L107.77+359.727L107.77+358.977L158.202+358.977L158.202+359.727Z" opacity="1" fill="#479da3"/>
<path d="M158.202+316.413L107.77+316.413L107.77+314.412L158.202+314.412L158.202+316.413Z" opacity="1" fill="#133b53"/>
<path d="M72.4544+362.104L43.2654+362.104C43.6764+360.583+44.7324+359.391+45.9454+358.849C47.2484+358.266+48.6934+358.355+50.0314+358.793C49.7854+358.712+49.4554+358.207+49.2834+357.993C48.8714+357.478+48.5394+356.939+48.4454+356.232C48.3404+355.442+48.5414+354.639+48.9724+354.014C49.6904+352.969+50.9424+352.594+52.0634+352.729C52.1194+352.735+52.1764+352.744+52.2314+352.753C52.4504+352.791+52.6664+352.854+52.8724+352.946C53.7704+353.346+54.5634+354.049+55.2424+354.822C55.3704+354.967+55.4974+355.116+55.6134+355.273C55.6134+355.273+53.7164+353.467+53.2694+352.096C51.6234+348.198+55.1064+342.539+59.4414+344.14C61.1834+344.981+62.6044+346.7+63.5444+348.725C60.0754+342.783+65.8244+339.172+67.8664+344.52C66.6034+340.111+68.4874+335.501+72.2944+338.088C72.3504+338.111+72.3994+338.141+72.4544+338.165L72.4544+362.104Z" opacity="1" fill="#479da3"/>
<path d="M72.4544+362.104L55.2584+362.104C55.5004+361.208+56.1224+360.505+56.8374+360.186C57.6044+359.843+58.4564+359.895+59.2444+360.153C58.8424+359.258+59.3914+358.051+60.1614+357.703C60.9314+357.354+61.7914+357.644+62.5324+358.08C61.8934+357.738+61.4144+357.016+61.1514+356.208C60.1824+353.912+62.2334+350.577+64.7874+351.521C65.8134+352.016+66.6514+353.029+67.2044+354.221C65.1614+350.721+68.5484+348.594+69.7514+351.745C68.5814+348.298+70.8404+346.278+72.4544+347.055L72.4544+362.104Z" opacity="1" fill="#7bbfba"/>
<path d="M54.6233+343.278C55.0853+343.754+55.7533+343.689+55.7533+343.689C55.7533+343.689+55.6723+342.854+55.2103+342.379C54.7483+341.903+54.0803+341.966+54.0803+341.966C54.0803+341.966+54.1613+342.801+54.6233+343.278" opacity="1" fill="#479da3"/>
<path d="M67.889+348.798C68.233+349.507+68.974+349.722+68.974+349.722C68.974+349.722+69.158+348.786+68.814+348.077C68.47+347.368+67.729+347.154+67.729+347.154C67.729+347.154+67.545+348.089+67.889+348.798" opacity="1" fill="#7bbfba"/>
<path d="M56.0247+341.395C55.8277+342.397+56.2867+343.4+56.2867+343.4C56.2867+343.4+57.0637+342.78+57.2607+341.778C57.4577+340.777+56.9987+339.773+56.9987+339.773C56.9987+339.773+56.2207+340.394+56.0247+341.395" opacity="1" fill="#479da3"/>
<path d="M313.489+353.793L313.845+344.499L314.499+344.499L314.914+353.615L313.489+353.793Z" opacity="1" fill="#133b53"/>
<path d="M316.861+361.989L311.605+361.989L310.581+353.794L317.889+353.794L316.861+361.989Z" opacity="1" fill="#f7b857"/>
<path d="M310.046+352.517L310.283+355.368L318.064+355.486L318.464+352.401L310.046+352.517Z" opacity="1" fill="#f7b857"/>
<path d="M310.727+355.374L317.677+355.479L317.643+355.754L310.921+356.561L310.727+355.374Z" opacity="1" fill="#e59933"/>
<path d="M313.358+331.503C313.134+332.024+312.549+332.272+312.549+332.272C312.549+332.272+312.328+331.676+312.551+331.155C312.776+330.635+313.361+330.387+313.361+330.387C313.361+330.387+313.583+330.982+313.358+331.503" opacity="1" fill="#7bbfba"/>
<path d="M311.525+330.851C312.038+331.437+311.999+332.31+311.999+332.31C311.999+332.31+311.129+332.233+310.616+331.646C310.102+331.06+310.141+330.187+310.141+330.187C310.141+330.187+311.011+330.264+311.525+330.851" opacity="1" fill="#7bbfba"/>
<path d="M320.627+344.523C320.063+344.569+319.569+344.168+319.569+344.168C319.569+344.168+319.992+343.693+320.557+343.648C321.121+343.602+321.614+344.003+321.614+344.003C321.614+344.003+321.191+344.478+320.627+344.523" opacity="1" fill="#7bbfba"/>
<path d="M320.346+342.597C320.068+343.325+319.278+343.7+319.278+343.7C319.278+343.7+318.94+342.893+319.218+342.165C319.496+341.438+320.286+341.064+320.286+341.064C320.286+341.064+320.625+341.869+320.346+342.597" opacity="1" fill="#7bbfba"/>
<path d="M323.414+339.018C322.842+336.721+321.423+334.744+319.049+333.464C316.98+332.351+314.511+332.256+312.24+332.666C308.764+333.296+305.843+334.995+304.974+338.632C304.408+340.996+304.502+344.149+305.436+346.411C306.325+348.56+308.322+350.216+310.6+350.691C313.4+351.275+316.88+351.161+319.324+349.55C320.206+348.969+321.07+348.345+321.786+347.569C322.826+346.438+323.255+345.106+323.517+343.621C323.797+342.023+323.771+340.457+323.414+339.018" opacity="1" fill="#7bbfba"/>
<path d="M311.538+345.183L309.55+342.962L307.437+342.843L307.437+342.647L309.151+342.522L307.437+340.419L307.816+339.993L312.277+343.91L311.538+345.183Z" opacity="1" fill="#133b53"/>
<path d="M315.209+339.909L317.397+338.456L317.761+337.045L317.867+337.085L317.841+338.123L318.326+337.759L318.464+338.039L315.866+340.825L315.209+339.909Z" opacity="1" fill="#133b53"/>
<path d="M299.298+342.51L278.286+342.51L278.286+321.248L299.298+321.248L299.298+342.51Z" opacity="1" fill="#ffffff"/>
<path d="M299.298+340.717L280.099+340.717L280.099+323.041L299.298+323.041L299.298+340.717Z" opacity="1" fill="#133b53"/>
<path d="M278.286+321.248L276.619+321.248L276.619+344.26L299.298+344.26L299.298+342.51L278.286+342.51L278.286+321.248Z" opacity="1" fill="#853d0a"/>
<path d="M137.947+287.425L166.774+287.425L166.774+250.349L137.947+250.349L137.947+287.425Z" opacity="1" fill="#ffffff"/>
<path d="M151.283+285.459L139.823+285.459L139.823+252.022L151.283+252.022L151.283+285.459Z" opacity="1" fill="#133b53"/>
<path d="M164.835+285.459L153.375+285.459L153.375+252.022L164.835+252.022L164.835+285.459Z" opacity="1" fill="#133b53"/>
<path d="M166.613+287.425L195.441+287.425L195.441+250.349L166.613+250.349L166.613+287.425Z" opacity="1" fill="#ffffff"/>
<path d="M179.95+285.459L168.49+285.459L168.49+252.022L179.95+252.022L179.95+285.459Z" opacity="1" fill="#133b53"/>
<path d="M193.502+285.459L182.042+285.459L182.042+252.022L193.502+252.022L193.502+285.459Z" opacity="1" fill="#133b53"/>
<path d="M194.742+259.632L139.045+259.632L139.045+258.715L194.742+258.715L194.742+259.632Z" opacity="1" fill="#ffffff"/>
<path d="M212.491+314.202L189.654+315.203L189.654+313.619L212.491+313.619L212.491+314.202Z" opacity="1" fill="#9bb8cc"/>
<path d="M189.002+352.546L190.053+352.546L190.053+312.691L189.002+312.691L189.002+352.546Z" opacity="1" fill="#9bb8cc"/>
<path d="M212.092+352.546L213.144+352.546L213.144+312.691L212.092+312.691L212.092+352.546Z" opacity="1" fill="#9bb8cc"/>
<path d="M193.472+349.753L208.673+349.753L208.673+340.831L193.472+340.831L193.472+349.753Z" opacity="1" fill="#133b53"/>
<path d="M208.673+339.018L208.673+318.969L206.143+318.969C204.991+317.42+203.152+316.413+201.074+316.413C198.996+316.413+197.157+317.42+196.006+318.969L193.472+318.969L193.472+339.018L208.673+339.018Z" opacity="1" fill="#133b53"/>
<path d="M216.315+311.452L185.832+311.452L185.832+313.62L216.315+313.62L216.315+311.452Z" opacity="1" fill="#133b53"/>
<path d="M99.0721+287.096L92.8181+287.096L92.8181+278.559L99.0721+278.559L99.0721+287.096Z" opacity="1" fill="#7bbfba"/>
<path d="M134.406+287.096L128.152+287.096L128.152+278.559L134.406+278.559L134.406+287.096Z" opacity="1" fill="#7bbfba"/>
<path d="M205.074+287.096L198.82+287.096L198.82+278.559L205.074+278.559L205.074+287.096Z" opacity="1" fill="#7bbfba"/>
<path d="M169.74+287.096L163.486+287.096L163.486+278.559L169.74+278.559L169.74+287.096Z" opacity="1" fill="#7bbfba"/>
<path d="M240.408+287.096L234.154+287.096L234.154+278.559L240.408+278.559L240.408+287.096Z" opacity="1" fill="#7bbfba"/>
<path d="M99.0721+279.56L92.8181+279.56L92.8181+278.559L99.0721+278.559L99.0721+279.56Z" opacity="1" fill="#479da3"/>
<path d="M134.406+279.56L128.152+279.56L128.152+278.559L134.406+278.559L134.406+279.56Z" opacity="1" fill="#479da3"/>
<path d="M205.074+279.56L198.82+279.56L198.82+278.559L205.074+278.559L205.074+279.56Z" opacity="1" fill="#479da3"/>
<path d="M169.74+279.56L163.486+279.56L163.486+278.559L169.74+278.559L169.74+279.56Z" opacity="1" fill="#479da3"/>
<path d="M240.408+279.56L234.154+279.56L234.154+278.559L240.408+278.559L240.408+279.56Z" opacity="1" fill="#479da3"/>
<path d="M241.383+278.559L91.6461+278.559L91.6461+277.558L241.383+277.558L241.383+278.559Z" opacity="1" fill="#7bbfba"/>
<path d="M257.778+330.487L250.649+330.487L250.649+317.98L257.778+317.98L257.778+330.487Z" opacity="1" fill="#133b53"/>
<path d="M249.648+316.871L249.648+331.445L259.054+331.445L259.054+331.962L249.231+331.962L249.231+316.871L249.648+316.871Z" opacity="1" fill="#9bb8cc"/>
<path d="M84.4751+330.487L77.3461+330.487L77.3461+317.98L84.4751+317.98L84.4751+330.487Z" opacity="1" fill="#133b53"/>
<path d="M76.346+316.871L76.346+331.445L85.751+331.445L85.751+331.962L75.929+331.962L75.929+316.871L76.346+316.871Z" opacity="1" fill="#9bb8cc"/>
<path d="M166.071+239.94L166.071+232.723C164.141+232.859+162.413+233.711+161.139+235.008L166.071+239.94Z" opacity="1" fill="#133b53"/>
<path d="M160.495+235.75C159.522+237.033+158.942+238.631+158.942+240.366C158.942+240.37+158.943+240.373+158.943+240.377L165.122+240.377L160.495+235.75Z" opacity="1" fill="#133b53"/>
<path d="M171.769+234.7C170.506+233.554+168.865+232.82+167.05+232.718L167.05+239.418C168.623+237.846+170.196+236.272+171.769+234.7" opacity="1" fill="#133b53"/>
<path d="M167.477+240.377L174.284+240.377C174.284+240.373+174.285+240.37+174.285+240.366C174.285+238.47+173.589+236.742+172.449+235.405L167.477+240.377Z" opacity="1" fill="#133b53"/>
<path d="M175.387+241.581L157.392+241.581C157.392+241.576+157.391+241.572+157.391+241.567C157.391+238.882+158.371+236.447+159.96+234.634C156.399+237.412+156.6+242.237+156.6+242.242L175.387+242.242L175.387+241.581Z" opacity="1" fill="#9bb8cc"/>
<path d="M336.445+362.604L41.5591+362.604L41.5591+361.604L336.445+361.604L336.445+362.604Z" opacity="1" fill="#133b53"/>
<path d="M90.6263+303.823L90.6263+310.36L89.3943+361.989L107.771+361.989L107.771+309.863L107.771+303.823L90.6263+303.823Z" opacity="1" fill="#cc5500"/>
<path d="M226.798+303.823L226.798+306.413L226.798+361.989L245.478+361.989L243.944+305.916L243.944+303.823L226.798+303.823Z" opacity="1" fill="#cc5500"/>
<path d="M158.202+303.823L158.202+308.401L158.202+362.292L175.347+362.292L175.347+307.904L175.347+303.823L158.202+303.823Z" opacity="1" fill="#cc5500"/>
<path d="M90.6263+303.823L90.6263+304.051L90.6263+305.852L107.771+305.852L107.771+304.034L107.771+303.823L90.6263+303.823Z" opacity="1" fill="#853d0a"/>
<path d="M226.798+303.823L226.798+303.913L226.798+305.852L243.944+305.852L243.944+303.896L243.944+303.823L226.798+303.823Z" opacity="1" fill="#853d0a"/>
<path d="M158.202+303.823L158.202+303.982L158.202+305.863L175.347+305.863L175.347+303.966L175.347+303.823L158.202+303.823Z" opacity="1" fill="#853d0a"/>
<path d="M247.104+303.823L87.4658+303.823L86.7678+286.688L247.104+287.096L247.104+303.823Z" opacity="1" fill="#133b53"/>
<path d="M83.705+214.593C83.705+219.78+79.5+223.986+74.312+223.986C69.125+223.986+64.92+219.78+64.92+214.593C64.92+209.406+69.125+205.2+74.312+205.2C79.5+205.2+83.705+209.406+83.705+214.593" opacity="1" fill="#f9aa41"/>
</g>
<g opacity="1">
<path d="M641.976+231.813L564.477+231.813C564.847+230.447+566.887+225.763+577.258+227.562C575.58+226.067+574.469+223.763+574.932+221.564C575.071+220.903+575.356+220.258+575.834+219.781C576.266+219.352+576.83+219.081+577.404+218.875C581.489+217.405+588.645+223.038+588.645+223.038C579.884+209.265+603.768+203.488+603.929+220.914C603.929+220.914+607.431+214.656+611.263+216.385C612.822+217.276+611.859+219.959+611.16+221.133C622.351+215.698+632.537+219.033+627.792+225.235C638.79+225.466+641.976+231.813+641.976+231.813" opacity="1" fill="#e8e8e8"/>
<path d="M521.537+279.447C523.664+275.702+527.157+274.731+533.175+276.787C531.962+274.042+535.595+268.636+541.408+274.362C539.664+265.17+553.451+264.106+552.77+273C556.217+268.702+565.323+271.145+561.781+276.277C567.1+274.957+569.254+276.191+572.749+279.447L521.537+279.447Z" opacity="1" fill="#e8e8e8"/>
<path d="M558.232+231.813L533.806+231.813C532.892+228.66+533.447+225.096+543.423+227.966C546.545+222.162+552.636+227.955+558.232+231.813" opacity="1" fill="#e8e8e8"/>
<path d="M778.677+260.517L754.251+260.517C753.336+257.364+753.892+253.8+763.868+256.67C766.284+252.179+770.189+252.987+773.849+258.008C780.232+253.03+784.572+257.966+778.677+260.517" opacity="1" fill="#e8e8e8"/>
<path d="M718.94+259.49L739.479+259.49L739.479+238.951L718.94+238.951L718.94+259.49Z" opacity="1" fill="#ffffff"/>
<path d="M718.94+252.016L739.479+249.869L739.479+238.951L718.94+238.951L718.94+252.016Z" opacity="1" fill="#9bb8cc"/>
<path d="M696.554+226.552L741.325+226.051L741.325+248.933L725.679+248.933L696.554+226.552Z" opacity="1" fill="#133b53"/>
<path d="M631.621+259.49L611.083+259.49L611.083+238.951L631.621+238.951L631.621+259.49Z" opacity="1" fill="#ffffff"/>
<path d="M631.621+252.016L611.083+249.869L611.083+238.951L631.621+238.951L631.621+252.016Z" opacity="1" fill="#9bb8cc"/>
<path d="M654.006+226.552L609.235+226.051L609.235+248.933L624.881+248.933L654.006+226.552Z" opacity="1" fill="#133b53"/>
<path d="M745.292+362.106L605.026+362.106L605.026+267.297L675.159+213.117L745.292+267.297L745.292+362.106Z" opacity="1" fill="#ffffff"/>
<path d="M675.083+213.117L604.95+267.298L604.95+275.2L619.107+264.239L619.107+261.243L664.845+224.009L664.845+228.826L672.19+223.138L745.216+276.818L745.216+267.298L675.083+213.117Z" opacity="1" fill="#9bb8cc"/>
<path d="M619.108+362.106L664.845+361.923L664.845+228.826L619.108+264.238L619.108+362.106Z" opacity="1" fill="#7bbfba"/>
<path d="M619.108+261.243L619.108+264.239L664.845+228.826L664.845+224.009L619.108+261.243Z" opacity="1" fill="#479da3"/>
<path d="M675.165+210.711L594.231+270.732L599.5+276.511L675.165+218.057L750.831+276.511L755.966+269.549L675.165+210.711Z" opacity="1" fill="#133b53"/>
<path d="M627.169+353.987L656.594+353.987L656.594+316.143L627.169+316.143L627.169+353.987Z" opacity="1" fill="#ffffff"/>
<path d="M640.781+351.982L629.084+351.982L629.084+317.853L640.781+317.853L640.781+351.982Z" opacity="1" fill="#133b53"/>
<path d="M654.614+351.982L642.917+351.982L642.917+317.853L654.614+317.853L654.614+351.982Z" opacity="1" fill="#133b53"/>
<path d="M627.169+353.479L656.594+353.479L656.594+353.987L627.169+353.987L627.169+353.479Z" opacity="1" fill="#9bb8cc"/>
<path d="M660.998+358.157L622.956+358.157L622.956+353.987L660.998+353.987L660.998+358.157Z" opacity="1" fill="#ffffff"/>
<path d="M662.855+362.106L621.097+362.106L621.097+358.043L662.855+358.043L662.855+362.106Z" opacity="1" fill="#ffffff"/>
<path d="M622.956+357.534L660.998+357.534L660.998+358.042L622.956+358.042L622.956+357.534Z" opacity="1" fill="#9bb8cc"/>
<path d="M627.169+288.016L656.594+288.016L656.594+262.255L627.169+262.255L627.169+288.016Z" opacity="1" fill="#ffffff"/>
<path d="M640.781+286.01L629.084+286.01L629.084+263.964L640.781+263.964L640.781+286.01Z" opacity="1" fill="#133b53"/>
<path d="M654.614+286.01L642.917+286.01L642.917+263.964L654.614+263.964L654.614+286.01Z" opacity="1" fill="#133b53"/>
<path d="M658.668+290.408L625.093+291.983L625.093+289.942L658.668+289.942L658.668+290.408Z" opacity="1" fill="#479da3"/>
<path d="M625.987+288.015L627.169+288.015L627.169+262.254L626.53+262.254L625.987+288.015Z" opacity="1" fill="#479da3"/>
<path d="M658.669+289.942L625.094+289.942L625.094+288.016L658.669+288.016L658.669+289.942Z" opacity="1" fill="#133b53"/>
<path d="M692.519+274.987L710.626+274.987L710.626+262.255L692.519+262.255L692.519+274.987Z" opacity="1" fill="#133b53"/>
<path d="M690.924+262.255L673.15+262.255L673.15+274.987L690.924+274.987L690.924+262.255Z" opacity="1" fill="#133b53"/>
<path d="M710.627+276.9L671.138+276.9L671.138+262.255L670.508+262.255L669.934+278.148L710.627+277.43L710.627+276.9Z" opacity="1" fill="#9bb8cc"/>
<path d="M678.399+298.885L677.721+362.106L679.774+362.106L679.774+354.093L679.774+298.885L678.399+298.885Z" opacity="1" fill="#9bb8cc"/>
<path d="M605.027+362.106L504.429+362.106L504.429+298.446L605.027+298.446L605.027+362.106Z" opacity="1" fill="#cc5500"/>
<path d="M605.027+299.711L504.429+303.285L504.429+298.446L605.027+298.446L605.027+299.711Z" opacity="1" fill="#853d0a"/>
<path d="M605.027+298.446L502.874+298.446L502.874+291.796L605.027+293.072L605.027+298.446Z" opacity="1" fill="#133b53"/>
<path d="M587.92+362.106L521.537+362.106L521.537+317.852L587.92+317.852L587.92+362.106Z" opacity="1" fill="#ffffff"/>
<path d="M587.92+321.703L521.537+321.703L521.537+320.953L587.92+320.953L587.92+321.703Z" opacity="1" fill="#e1ecef"/>
<path d="M587.92+324.238L521.537+324.238L521.537+323.488L587.92+323.488L587.92+324.238Z" opacity="1" fill="#e1ecef"/>
<path d="M587.92+326.773L521.537+326.773L521.537+326.023L587.92+326.023L587.92+326.773Z" opacity="1" fill="#e1ecef"/>
<path d="M587.92+329.308L521.537+329.308L521.537+328.558L587.92+328.558L587.92+329.308Z" opacity="1" fill="#e1ecef"/>
<path d="M587.92+331.842L521.537+331.842L521.537+331.092L587.92+331.092L587.92+331.842Z" opacity="1" fill="#e1ecef"/>
<path d="M587.92+334.377L521.537+334.377L521.537+333.627L587.92+333.627L587.92+334.377Z" opacity="1" fill="#e1ecef"/>
<path d="M587.92+336.912L521.537+336.912L521.537+336.162L587.92+336.162L587.92+336.912Z" opacity="1" fill="#e1ecef"/>
<path d="M587.92+339.447L521.537+339.447L521.537+338.697L587.92+338.697L587.92+339.447Z" opacity="1" fill="#e1ecef"/>
<path d="M587.92+341.982L521.537+341.982L521.537+341.232L587.92+341.232L587.92+341.982Z" opacity="1" fill="#e1ecef"/>
<path d="M587.92+344.517L521.537+344.517L521.537+343.767L587.92+343.767L587.92+344.517Z" opacity="1" fill="#e1ecef"/>
<path d="M587.92+347.051L521.537+347.051L521.537+346.301L587.92+346.301L587.92+347.051Z" opacity="1" fill="#e1ecef"/>
<path d="M587.92+349.586L521.537+349.586L521.537+348.836L587.92+348.836L587.92+349.586Z" opacity="1" fill="#e1ecef"/>
<path d="M587.92+352.121L521.537+352.121L521.537+351.371L587.92+351.371L587.92+352.121Z" opacity="1" fill="#e1ecef"/>
<path d="M587.92+354.656L521.537+354.656L521.537+353.906L587.92+353.906L587.92+354.656Z" opacity="1" fill="#e1ecef"/>
<path d="M587.92+357.191L521.537+357.191L521.537+356.441L587.92+356.441L587.92+357.191Z" opacity="1" fill="#e1ecef"/>
<path d="M587.92+359.726L521.537+359.726L521.537+358.976L587.92+358.976L587.92+359.726Z" opacity="1" fill="#e1ecef"/>
<path d="M588.934+319.106L519.667+319.106L519.667+315.285L588.934+316.019L588.934+319.106Z" opacity="1" fill="#133b53"/>
<path d="M604.955+362.106L602.87+362.106L603.764+298.446L604.955+298.446L604.955+362.106Z" opacity="1" fill="#853d0a"/>
<path d="M774.203+362.106L679.774+362.106L679.774+298.446L774.203+298.446L774.203+362.106Z" opacity="1" fill="#cc5500"/>
<path d="M774.203+362.106L679.774+362.106L679.774+354.094L774.203+354.094L774.203+362.106Z" opacity="1" fill="#853d0a"/>
<path d="M774.203+305.838L679.774+310.264L679.774+303.285L774.203+303.285L774.203+305.838Z" opacity="1" fill="#853d0a"/>
<path d="M751.391+346.95L702.497+346.95L702.497+316.143L751.391+316.143L751.391+346.95Z" opacity="1" fill="#ffffff"/>
<path d="M712.75+345.03L704.378+345.03L704.378+317.852L712.75+317.852L712.75+345.03Z" opacity="1" fill="#133b53"/>
<path d="M740.141+345.03L714.063+345.03L714.063+317.852L740.141+317.852L740.141+345.03Z" opacity="1" fill="#133b53"/>
<path d="M749.827+345.03L741.455+345.03L741.455+317.852L749.827+317.852L749.827+345.03Z" opacity="1" fill="#133b53"/>
<path d="M751.391+315.747L702.497+315.747L701.773+315.747L701.174+346.95L702.497+346.95L702.497+316.143L751.391+316.143L751.391+315.747Z" opacity="1" fill="#853d0a"/>
<path d="M702.497+346.69L751.391+346.69L751.391+347.419L701.174+349.644L701.174+346.69L702.497+346.69Z" opacity="1" fill="#853d0a"/>
<path d="M777.054+303.285L679.212+303.285L679.212+298.689L777.054+298.498L777.054+303.285Z" opacity="1" fill="#ffffff"/>
<path d="M777.054+299.796L679.212+300.892L679.212+298.69L777.054+298.498L777.054+299.796Z" opacity="1" fill="#9bb8cc"/>
<path d="M779.923+297.169L755.324+284.679L701.241+284.679L675.052+297.724L675.052+299.171L779.923+298.756L779.923+297.169Z" opacity="1" fill="#133b53"/>
<path d="M681.076+305.328L684.576+305.328L684.576+301.881L681.076+301.881L681.076+305.328Z" opacity="1" fill="#ffffff"/>
<path d="M687.597+305.328L691.097+305.328L691.097+301.881L687.597+301.881L687.597+305.328Z" opacity="1" fill="#ffffff"/>
<path d="M694.117+305.328L697.617+305.328L697.617+301.881L694.117+301.881L694.117+305.328Z" opacity="1" fill="#ffffff"/>
<path d="M700.639+305.328L704.138+305.328L704.138+301.881L700.639+301.881L700.639+305.328Z" opacity="1" fill="#ffffff"/>
<path d="M707.159+305.328L710.658+305.328L710.658+301.881L707.159+301.881L707.159+305.328Z" opacity="1" fill="#ffffff"/>
<path d="M720.2+305.328L723.7+305.328L723.7+301.881L720.2+301.881L720.2+305.328Z" opacity="1" fill="#ffffff"/>
<path d="M713.68+305.328L717.18+305.328L717.18+301.881L713.68+301.881L713.68+305.328Z" opacity="1" fill="#ffffff"/>
<path d="M726.721+305.328L730.221+305.328L730.221+301.881L726.721+301.881L726.721+305.328Z" opacity="1" fill="#ffffff"/>
<path d="M733.242+305.328L736.741+305.328L736.741+301.881L733.242+301.881L733.242+305.328Z" opacity="1" fill="#ffffff"/>
<path d="M739.763+305.328L743.263+305.328L743.263+301.881L739.763+301.881L739.763+305.328Z" opacity="1" fill="#ffffff"/>
<path d="M746.283+305.328L749.783+305.328L749.783+301.881L746.283+301.881L746.283+305.328Z" opacity="1" fill="#ffffff"/>
<path d="M752.804+305.328L756.304+305.328L756.304+301.881L752.804+301.881L752.804+305.328Z" opacity="1" fill="#ffffff"/>
<path d="M765.846+305.328L769.345+305.328L769.345+301.881L765.846+301.881L765.846+305.328Z" opacity="1" fill="#ffffff"/>
<path d="M759.325+305.328L762.824+305.328L762.824+301.881L759.325+301.881L759.325+305.328Z" opacity="1" fill="#ffffff"/>
<path d="M772.366+305.328L775.866+305.328L775.866+301.881L772.366+301.881L772.366+305.328Z" opacity="1" fill="#ffffff"/>
<path d="M681.076+303.956L684.576+303.956L684.576+303.286L681.076+303.286L681.076+303.956Z" opacity="1" fill="#9bb8cc"/>
<path d="M687.597+303.956L691.097+303.956L691.097+303.286L687.597+303.286L687.597+303.956Z" opacity="1" fill="#9bb8cc"/>
<path d="M694.117+303.956L697.617+303.956L697.617+303.286L694.117+303.286L694.117+303.956Z" opacity="1" fill="#9bb8cc"/>
<path d="M700.639+303.956L704.138+303.956L704.138+303.286L700.639+303.286L700.639+303.956Z" opacity="1" fill="#9bb8cc"/>
<path d="M707.159+303.956L710.658+303.956L710.658+303.286L707.159+303.286L707.159+303.956Z" opacity="1" fill="#9bb8cc"/>
<path d="M720.2+303.956L723.7+303.956L723.7+303.286L720.2+303.286L720.2+303.956Z" opacity="1" fill="#9bb8cc"/>
<path d="M713.68+303.956L717.18+303.956L717.18+303.286L713.68+303.286L713.68+303.956Z" opacity="1" fill="#9bb8cc"/>
<path d="M726.721+303.956L730.221+303.956L730.221+303.286L726.721+303.286L726.721+303.956Z" opacity="1" fill="#9bb8cc"/>
<path d="M733.242+303.956L736.741+303.956L736.741+303.286L733.242+303.286L733.242+303.956Z" opacity="1" fill="#9bb8cc"/>
<path d="M739.763+303.956L743.263+303.956L743.263+303.286L739.763+303.286L739.763+303.956Z" opacity="1" fill="#9bb8cc"/>
<path d="M746.283+303.956L749.783+303.956L749.783+303.286L746.283+303.286L746.283+303.956Z" opacity="1" fill="#9bb8cc"/>
<path d="M752.804+303.956L756.304+303.956L756.304+303.286L752.804+303.286L752.804+303.956Z" opacity="1" fill="#9bb8cc"/>
<path d="M765.846+303.956L769.345+303.956L769.345+303.286L765.846+303.286L765.846+303.956Z" opacity="1" fill="#9bb8cc"/>
<path d="M759.325+303.956L762.824+303.956L762.824+303.286L759.325+303.286L759.325+303.956Z" opacity="1" fill="#9bb8cc"/>
<path d="M772.366+303.956L775.866+303.956L775.866+303.286L772.366+303.286L772.366+303.956Z" opacity="1" fill="#9bb8cc"/>
<path d="M501.89+362.106L500.758+362.106L500.758+338.315L501.89+338.315L501.89+362.106Z" opacity="1" fill="#133b53"/>
<path d="M504.063+331.213L496.763+331.213C498.547+331.213+500.006+332.673+500.006+334.457L500.006+339.235L499.335+339.518L506.841+339.518C507.099+339.518+507.307+339.309+507.307+339.052L507.307+334.457C507.307+332.673+505.847+331.213+504.063+331.213" opacity="1" fill="#133b53"/>
<path d="M496.837+331.215C495.087+331.255+493.667+332.698+493.667+334.457L493.667+339.173C493.667+339.363+493.821+339.518+494.012+339.518L499.662+339.518C499.853+339.518+500.006+339.363+500.006+339.173L500.006+334.457C500.006+332.698+498.587+331.255+496.837+331.215" opacity="1" fill="#ffffff"/>
<path d="M502.776+330.165L502.776+328.932L500.687+328.932L500.687+333.231C500.687+333.608+500.993+333.914+501.371+333.914C501.748+333.914+502.053+333.608+502.053+333.231C502.053+332.853+501.748+332.547+501.371+332.547C501.368+332.547+501.365+332.548+501.363+332.548L501.363+330.326L502.776+330.165Z" opacity="1" fill="#f43d4f"/>
<path d="M626.051+353.987L627.168+353.987L627.168+316.143L626.53+316.143L626.051+353.987Z" opacity="1" fill="#479da3"/>
<path d="M782.337+361.68L782.923+353.194L778.227+347.756L778.515+347.523L781.283+349.893L781.689+347.523L782.126+347.637L782.051+350.592L783.179+351.688L783.607+343.016L781.308+340.17L781.564+339.951L783.944+341.854L784.099+337.321L784.719+337.321L785.13+342.895L785.733+348.436L788.833+345.073L789.125+345.264L787.994+347.045L789.964+347.018L789.964+347.347L787.812+347.675L785.695+350.99L786.177+361.68L782.337+361.68Z" opacity="1" fill="#994f61"/>
<path d="M802.386+330.985C802.423+329.927+802.345+328.838+801.901+327.877C801.456+326.917+800.589+326.102+799.541+325.952C798.936+325.865+798.259+326.035+797.886+326.52C799.067+325.051+800.145+323.442+800.611+321.616C801.076+319.79+800.844+317.703+799.629+316.262C798.459+314.876+796.506+314.277+794.711+314.542C792.917+314.805+791.295+315.854+790.115+317.231C790.242+314.396+790.895+311.538+790.376+308.747C789.857+305.957+787.641+303.164+784.805+303.29C782.883+303.375+781.266+304.751+780.041+306.235C777.499+309.312+775.932+313.182+775.615+317.16C774.878+316.147+774.127+315.12+773.142+314.345C772.157+313.571+770.888+313.069+769.651+313.271C767.616+313.603+766.322+315.674+765.826+317.676C765.297+319.813+765.374+322.095+766.044+324.192C767.153+327.656+769.753+330.407+772.275+333.029C771.116+332.512+769.656+333.209+769.095+334.346C768.333+335.892+769.059+337.672+770.116+338.901C771.007+339.936+772.186+340.682+773.406+341.294C780.237+344.724+788.552+344.229+795.446+341.244C798.005+340.135+799.791+338.302+801.153+335.851C801.157+335.841+801.163+335.832+801.168+335.823C801.981+334.354+802.325+332.662+802.386+330.985" opacity="1" fill="#479da3"/>
<path d="M780.443+345.374C780.123+345.004+779.181+344.857+779.199+345.533C778.922+343.446+776.195+344.237+777.468+346.231C775.374+344.054+773.516+346.839+776.228+348.081C773.923+348.127+775.211+351.416+777.231+349.982C776.413+350.473+776.934+351.552+777.815+351.411C780.161+351.026+782.556+347.288+780.443+345.374" opacity="1" fill="#479da3"/>
<path d="M776.352+339.219C776.163+338.663+776.031+338.071+776.114+337.489C776.196+336.907+776.528+336.335+777.06+336.088C777.369+335.945+777.755+335.927+778.032+336.125C777.168+335.533+776.338+334.85+775.799+333.953C775.259+333.056+775.049+331.909+775.465+330.949C775.866+330.025+776.809+329.395+777.806+329.248C778.802+329.102+779.832+329.401+780.68+329.944C780.16+328.457+779.356+327.041+779.186+325.474C779.016+323.907+779.748+322.068+781.277+321.682C782.313+321.42+783.392+321.894+784.281+322.487C786.124+323.718+787.576+325.525+788.379+327.591C788.61+326.934+788.845+326.268+789.246+325.698C789.646+325.13+790.241+324.66+790.93+324.57C792.066+324.421+793.085+325.316+793.668+326.301C794.29+327.353+794.615+328.579+794.593+329.801C794.557+331.821+793.614+333.698+792.691+335.496C793.224+335.036+794.113+335.173+794.592+335.689C795.245+336.389+795.143+337.451+794.777+338.274C794.469+338.967+793.961+339.552+793.411+340.072C790.326+342.988+785.825+344.052+781.681+343.566C780.143+343.386+778.9+342.696+777.785+341.61C777.781+341.606+777.776+341.602+777.772+341.597C777.105+340.946+776.652+340.101+776.352+339.219" opacity="1" fill="#7bbfba"/>
<path d="M768.609+332.11C769.002+332.821+768.768+333.701+768.768+333.701C768.768+333.701+767.899+333.429+767.506+332.718C767.115+332.007+767.347+331.127+767.347+331.127C767.347+331.127+768.216+331.399+768.609+332.11" opacity="1" fill="#479da3"/>
<path d="M766.259+333.613C767.373+333.548+768.328+334.359+768.328+334.359C768.328+334.359+767.475+335.276+766.361+335.342C765.245+335.407+764.291+334.596+764.291+334.596C764.291+334.596+765.144+333.679+766.259+333.613" opacity="1" fill="#479da3"/>
<path d="M790.712+348.003C790.312+347.836+790.117+347.39+790.117+347.39C790.117+347.39+790.571+347.216+790.971+347.383C791.371+347.551+791.566+347.996+791.566+347.996C791.566+347.996+791.111+348.17+790.712+348.003" opacity="1" fill="#479da3"/>
<path d="M791.197+346.596C790.753+346.993+790.085+346.97+790.085+346.97C790.085+346.97+790.137+346.304+790.583+345.907C791.027+345.51+791.695+345.533+791.695+345.533C791.695+345.533+791.642+346.199+791.197+346.596" opacity="1" fill="#479da3"/>
<path d="M790.589+323.262C790.023+323.844+789.112+323.875+789.112+323.875C789.112+323.875+789.121+322.965+789.688+322.383C790.254+321.802+791.164+321.77+791.164+321.77C791.164+321.77+791.155+322.68+790.589+323.262" opacity="1" fill="#7bbfba"/>
<path d="M776.886+327.876C777.413+328.077+777.684+328.647+777.684+328.647C777.684+328.647+777.102+328.893+776.575+328.692C776.048+328.491+775.778+327.92+775.778+327.92C775.778+327.92+776.36+327.675+776.886+327.876" opacity="1" fill="#7bbfba"/>
<path d="M788.47+321.449C788.856+322.497+788.357+323.645+788.357+323.645C788.357+323.645+787.232+323.095+786.845+322.047C786.459+320.999+786.959+319.851+786.959+319.851C786.959+319.851+788.084+320.401+788.47+321.449" opacity="1" fill="#7bbfba"/>
<path d="M779.084+350.179C778.877+350.206+778.671+350.211+778.481+350.187C778.201+350.152+777.923+350.03+777.742+349.812C777.591+349.628+777.507+349.334+777.592+349.1C777.715+348.762+778.156+348.843+778.359+348.588C778.471+348.448+778.472+348.251+778.448+348.074C778.425+347.896+778.383+347.715+778.426+347.541C778.469+347.367+778.635+347.207+778.81+347.246C778.941+347.277+779.023+347.404+779.109+347.496C779.163+347.553+779.232+347.602+779.311+347.601C779.641+347.593+779.718+347.102+780.063+347.163C780.423+347.226+780.628+347.605+780.729+347.923C780.904+348.481+780.819+349.09+780.437+349.545C780.094+349.951+779.594+350.111+779.084+350.179" opacity="1" fill="#7bbfba"/>
<path d="M778.798+362.052C776.824+359.148+774.294+357.527+770.982+358.436C768.796+353.479+762.174+354.287+760.558+359.422C757.457+358.534+754.736+359.867+752.158+362.052L778.798+362.052Z" opacity="1" fill="#7bbfba"/>
<path d="M614.299+358.152C611.869+350.435+601.915+349.22+598.631+356.671C594.524+355.543+591.218+357.009+588.52+360.006C587.195+358.331+584.052+357.677+581.715+359.043C579.832+353.065+572.122+352.124+569.577+357.896C565.72+356.837+562.774+358.725+560.476+362.106L586.881+362.106L591.493+362.106L626.923+362.106C623.05+358.822+618.958+356.818+614.299+358.152" opacity="1" fill="#479da3"/>
<path d="M597.744+362.052C595.769+359.148+593.239+357.527+589.927+358.436C587.741+353.479+581.119+354.287+579.503+359.422C576.402+358.534+573.681+359.867+571.104+362.052L597.744+362.052Z" opacity="1" fill="#7bbfba"/>
<path d="M611.149+351.598C610.623+352.034+609.859+351.979+609.859+351.979C609.859+351.979+609.948+351.218+610.473+350.782C611+350.347+611.764+350.401+611.764+350.401C611.764+350.401+611.675+351.162+611.149+351.598" opacity="1" fill="#479da3"/>
<path d="M609.538+349.891C609.767+350.802+609.246+351.718+609.246+351.718C609.246+351.718+608.354+351.157+608.125+350.246C607.896+349.335+608.417+348.419+608.417+348.419C608.417+348.419+609.309+348.98+609.538+349.891" opacity="1" fill="#479da3"/>
<path d="M576.714+357.602C576.535+358.261+575.879+358.657+575.879+358.657C575.879+358.657+575.513+357.983+575.693+357.324C575.871+356.665+576.527+356.269+576.527+356.269C576.527+356.269+576.894+356.943+576.714+357.602" opacity="1" fill="#7bbfba"/>
<path d="M574.414+357.135C575.126+357.748+575.228+358.797+575.228+358.797C575.228+358.797+574.176+358.851+573.464+358.239C572.752+357.626+572.65+356.577+572.65+356.577C572.65+356.577+573.702+356.522+574.414+357.135" opacity="1" fill="#7bbfba"/>
<path d="M514.658+362.052C513.168+359.86+511.258+358.636+508.758+359.323C507.107+355.581+502.109+356.191+500.888+360.067C498.549+359.397+496.494+360.403+494.55+362.052L514.658+362.052Z" opacity="1" fill="#7bbfba"/>
<path d="M506.36+361.051C506.36+361.051+506.941+359.913+508.757+359.322L508.459+358.749C507.383+359.272+506.578+360.157+506.36+361.051" opacity="1" fill="#479da3"/>
<path d="M500.888+360.067C500.888+360.067+501.998+360.572+502.434+361.168C502.076+360.436+501.6+359.933+501.05+359.624L500.888+360.067Z" opacity="1" fill="#479da3"/>
<path d="M793.881+362.606L492.882+362.606L492.882+361.606L793.881+361.606L793.881+362.606Z" opacity="1" fill="#133b53"/>
</g>
<g opacity="1">
<path d="M454.088+62.4368L445.769+62.4368L445.769+62.4368L445.769+95.0645L445.769+95.0645L454.088+95.0645L454.088+95.0645L454.088+62.4368L454.088+62.4368Z" opacity="1" fill="#8f8f8f"/>
<path d="M475.54+62.4368L467.221+62.4368L467.221+62.4368L467.221+95.0645L467.221+95.0645L475.54+95.0645L475.54+95.0645L475.54+62.4368L475.54+62.4368Z" opacity="1" fill="#8f8f8f"/>
<path d="M387.79+54.3957L387.79+120.241L371.49+120.241C367.648+120.241+364.016+122.051+361.736+125.124L360.849+126.303C359.202+128.534+356.584+129.881+353.797+129.881L348.265+129.881C344.296+129.881+341.044+133.081+341.044+137.081L341.044+159.815C341.044+160.952+340.495+162.004+339.566+162.678L337.159+164.362C336.23+165.035+335.639+166.088+335.639+167.267L335.639+188.822C335.639+192.737+338.806+195.895+342.733+195.895L343.198+195.895C344.676+195.895+346.027+196.484+346.998+197.452C348.054+198.505+348.687+199.979+348.561+201.62C348.349+204.441+345.858+206.588+343.029+206.588L316.89+206.588C312.54+206.588+309.035+203.094+309.035+198.758L309.035+115.525C309.035+103.358+313.891+91.6965+322.464+83.0239L337.708+67.7835C346.28+59.1951+357.893+54.3535+370.055+54.3535L387.79+54.3535L387.79+54.3957Z" opacity="1" fill="#cc5500"/>
<path d="M475.514+95.0691L492.109+95.0691L492.109+95.0691L492.109+62.4414L492.109+62.4414L475.514+62.4414L475.514+62.4414L475.514+95.0691L475.514+95.0691Z" opacity="1" fill="#262626"/>
<path d="M492.12+92.08L517.71+92.08L517.71+92.08L517.71+65.4305L517.71+65.4305L492.12+65.4305L492.12+65.4305L492.12+92.08L492.12+92.08Z" opacity="1" fill="#8f8f8f"/>
<path d="M517.714+89.8908L530.973+89.8908L530.973+89.8908L530.973+67.5776L530.973+67.5776L517.714+67.5776L517.714+67.5776L517.714+89.8908L517.714+89.8908Z" opacity="1" fill="#262626"/>
<path d="M534.997+84.2869L530.985+89.8862L530.985+67.6151L534.997+73.2566L534.997+84.2869Z" opacity="1" fill="#000000"/>
<path d="M543.653+76.4562L543.653+81.0451L537.91+83.1923L534.997+84.2869L534.997+73.2145L537.91+74.3091L543.653+76.4562Z" opacity="1" fill="#8f8f8f"/>
<path d="M441.715+57.8479C439.73+55.6166+436.943+54.3535+433.945+54.3535L411.987+54.3535L411.987+120.241L430.651+120.241L445.769+95.0645L445.769+62.4368L441.715+57.8479Z" opacity="1" fill="#000000"/>
<path d="M411.987+120.241L411.987+127.819L426.851+127.819C428.962+127.819+430.652+126.135+430.652+124.03L430.652+120.241L411.987+120.241Z" opacity="1" fill="#8f8f8f"/>
<path d="M387.79+54.3957L387.79+125.924C387.79+126.977+388.635+127.861+389.69+127.861L389.69+127.861L411.987+127.861L411.987+54.3957L387.79+54.3957Z" opacity="1" fill="#262626"/>
<path d="M406.793+89.0863L406.793+89.0863C405.653+89.0863+404.724+88.1601+404.724+87.0234L404.724+79.4453C404.724+78.3086+405.653+77.3824+406.793+77.3824L406.793+77.3824C407.933+77.3824+408.862+78.3086+408.862+79.4453L408.862+87.0234C408.904+88.1601+407.975+89.0863+406.793+89.0863Z" opacity="1" fill="#000000"/>
<path d="M406.793+104.579L406.793+104.579C405.653+104.579+404.724+103.653+404.724+102.516L404.724+94.9382C404.724+93.8015+405.653+92.8753+406.793+92.8753L406.793+92.8753C407.933+92.8753+408.862+93.8015+408.862+94.9382L408.862+102.516C408.904+103.653+407.975+104.579+406.793+104.579Z" opacity="1" fill="#000000"/>
<g opacity="1">
<path d="M514.516+69.4255L495.302+69.4255C494.669+69.4255+494.12+68.8782+494.12+68.2467L494.12+68.2046C494.12+67.573+494.669+67.0257+495.302+67.0257L514.516+67.0257C515.149+67.0257+515.698+67.573+515.698+68.2046L515.698+68.2467C515.698+68.9203+515.192+69.4255+514.516+69.4255Z" opacity="1" fill="#262626"/>
<path d="M514.516+73.5092L495.302+73.5092C494.669+73.5092+494.12+72.9619+494.12+72.3304L494.12+72.2883C494.12+71.6568+494.669+71.1095+495.302+71.1095L514.516+71.1095C515.149+71.1095+515.698+71.6568+515.698+72.2883L515.698+72.3304C515.698+73.004+515.192+73.5092+514.516+73.5092Z" opacity="1" fill="#262626"/>
<path d="M514.516+77.635L495.302+77.635C494.669+77.635+494.12+77.0877+494.12+76.4562L494.12+76.4141C494.12+75.7826+494.669+75.2353+495.302+75.2353L514.516+75.2353C515.149+75.2353+515.698+75.7826+515.698+76.4141L515.698+76.4562C515.698+77.0877+515.192+77.635+514.516+77.635Z" opacity="1" fill="#262626"/>
<path d="M514.516+81.7187L495.302+81.7187C494.669+81.7187+494.12+81.1714+494.12+80.5399L494.12+80.4978C494.12+79.8663+494.669+79.319+495.302+79.319L514.516+79.319C515.149+79.319+515.698+79.8663+515.698+80.4978L515.698+80.5399C515.698+81.1714+515.192+81.7187+514.516+81.7187Z" opacity="1" fill="#262626"/>
<path d="M514.516+85.8025L495.302+85.8025C494.669+85.8025+494.12+85.2552+494.12+84.6237L494.12+84.5816C494.12+83.9501+494.669+83.4028+495.302+83.4028L514.516+83.4028C515.149+83.4028+515.698+83.9501+515.698+84.5816L515.698+84.6237C515.698+85.2973+515.192+85.8025+514.516+85.8025Z" opacity="1" fill="#262626"/>
<path d="M514.516+89.8862L495.302+89.8862C494.669+89.8862+494.12+89.3389+494.12+88.7074L494.12+88.6653C494.12+88.0338+494.669+87.4865+495.302+87.4865L514.516+87.4865C515.149+87.4865+515.698+88.0338+515.698+88.6653L515.698+88.7074C515.698+89.381+515.192+89.8862+514.516+89.8862Z" opacity="1" fill="#262626"/>
</g>
<g opacity="1">
<path d="M372.926+80.4978L341.466+80.4978C340.706+80.4978+340.073+79.8663+340.073+79.1085L340.073+78.6454C340.073+77.8876+340.706+77.2561+341.466+77.2561L372.926+77.2561C373.686+77.2561+374.32+77.8876+374.32+78.6454L374.32+79.1085C374.32+79.8663+373.686+80.4978+372.926+80.4978Z" opacity="1" fill="#000000"/>
<path d="M372.926+86.0972L341.466+86.0972C340.706+86.0972+340.073+85.4657+340.073+84.7079L340.073+84.2448C340.073+83.487+340.706+82.8555+341.466+82.8555L372.926+82.8555C373.686+82.8555+374.32+83.487+374.32+84.2448L374.32+84.7079C374.32+85.4657+373.686+86.0972+372.926+86.0972Z" opacity="1" fill="#000000"/>
<path d="M372.926+91.7386L341.466+91.7386C340.706+91.7386+340.073+91.1071+340.073+90.3493L340.073+89.8862C340.073+89.1284+340.706+88.4969+341.466+88.4969L372.926+88.4969C373.686+88.4969+374.32+89.1284+374.32+89.8862L374.32+90.3493C374.32+91.1071+373.686+91.7386+372.926+91.7386Z" opacity="1" fill="#000000"/>
<path d="M372.926+97.338L341.466+97.338C340.706+97.338+340.073+96.7065+340.073+95.9487L340.073+95.4855C340.073+94.7277+340.706+94.0962+341.466+94.0962L372.926+94.0962C373.686+94.0962+374.32+94.7277+374.32+95.4855L374.32+95.9487C374.32+96.7065+373.686+97.338+372.926+97.338Z" opacity="1" fill="#000000"/>
<path d="M372.926+102.937L341.466+102.937C340.706+102.937+340.073+102.306+340.073+101.548L340.073+101.085C340.073+100.327+340.706+99.6956+341.466+99.6956L372.926+99.6956C373.686+99.6956+374.32+100.327+374.32+101.085L374.32+101.548C374.32+102.306+373.686+102.937+372.926+102.937Z" opacity="1" fill="#000000"/>
<path d="M372.926+108.537L341.466+108.537C340.706+108.537+340.073+107.905+340.073+107.147L340.073+106.684C340.073+105.926+340.706+105.295+341.466+105.295L372.926+105.295C373.686+105.295+374.32+105.926+374.32+106.684L374.32+107.147C374.32+107.905+373.686+108.537+372.926+108.537Z" opacity="1" fill="#000000"/>
</g>
<path d="M334.71+144.49C334.71+140.189+331.212+136.702+326.898+136.702C322.583+136.702+319.086+140.189+319.086+144.49C319.086+148.792+322.583+152.279+326.898+152.279C331.212+152.279+334.71+148.792+334.71+144.49Z" opacity="1" fill="#c4c4c4"/>
<path d="M331.289+144.49C331.289+142.072+329.323+140.112+326.898+140.112C324.472+140.112+322.506+142.072+322.506+144.49C322.506+146.908+324.472+148.869+326.898+148.869C329.323+148.869+331.289+146.908+331.289+144.49Z" opacity="1" fill="#000000"/>
<path d="M316.805+144.49C316.805+148.237+318.832+151.479+321.915+153.205C323.773+154.258+324.913+156.194+324.913+158.299L324.913+182.465C324.913+185.664+322.379+188.233+319.212+188.359L309.035+188.654L309.035+118.978L319.043+118.978C322.295+118.978+324.955+121.63+324.955+124.872L324.955+130.681C324.955+132.786+323.773+134.723+321.957+135.776C318.832+137.502+316.805+140.785+316.805+144.49Z" opacity="1" fill="#262626"/>
<path d="M318.705+159.141L318.705+159.141C318.705+160.194+317.861+161.036+316.805+161.036L308.993+161.036L308.993+157.247L316.805+157.247C317.861+157.247+318.705+158.089+318.705+159.141Z" opacity="1" fill="#000000"/>
<path d="M318.705+165.835L318.705+165.835C318.705+166.888+317.861+167.73+316.805+167.73L308.993+167.73L308.993+163.941L316.805+163.941C317.861+163.941+318.705+164.825+318.705+165.835Z" opacity="1" fill="#000000"/>
<path d="M318.705+172.571L318.705+172.571C318.705+173.624+317.861+174.466+316.805+174.466L308.993+174.466L308.993+170.677L316.805+170.677C317.861+170.677+318.705+171.519+318.705+172.571Z" opacity="1" fill="#000000"/>
<path d="M318.705+179.307L318.705+179.307C318.705+180.36+317.861+181.202+316.805+181.202L308.993+181.202L308.993+177.413L316.805+177.413C317.861+177.413+318.705+178.255+318.705+179.307Z" opacity="1" fill="#000000"/>
<path d="M353.459+145.922L341.044+145.922L341.044+137.081C341.044+133.123+344.253+129.881+348.265+129.881L353.417+129.881L354.261+132.45L357.048+140.954C357.808+143.438+355.993+145.922+353.459+145.922Z" opacity="1" fill="#262626"/>
<path d="M449.992+62.4368L454.088+62.4368L454.088+95.0645L449.95+95.0645L449.95+63.363C449.907+63.0262+449.95+62.7315+449.992+62.4368Z" opacity="1" fill="#c4c4c4"/>
<path d="M471.359+63.363L471.359+95.0645L467.221+95.0645L467.221+62.4368L471.317+62.4368C471.359+62.7315+471.359+63.0262+471.359+63.363Z" opacity="1" fill="#c4c4c4"/>
<path d="M467.221+115.694L454.088+115.694L454.088+61.5527C454.088+57.9321+457.044+54.9851+460.675+54.9851L460.675+54.9851C464.307+54.9851+467.263+57.9321+467.263+61.5527L467.263+115.694L467.221+115.694Z" opacity="1" fill="#262626"/>
<path d="M463.758+62.3526C463.758+60.632+462.359+59.2372+460.633+59.2372C458.907+59.2372+457.508+60.632+457.508+62.3526C457.508+64.0732+458.907+65.468+460.633+65.468C462.359+65.468+463.758+64.0732+463.758+62.3526Z" opacity="1" fill="#000000"/>
<path d="M474.188+121.209L447.12+121.209L451.132+115.694L470.177+115.694L474.188+121.209Z" opacity="1" fill="#000000"/>
<path d="M447.114+206.183L474.182+206.183L474.182+206.183L474.182+121.182L474.182+121.182L447.114+121.182L447.114+121.182L447.114+206.183L447.114+206.183Z" opacity="1" fill="#262626"/>
<path d="M476.722+210.335L444.544+210.335C443.404+210.335+442.475+209.409+442.475+208.272L442.475+208.272C442.475+207.136+443.404+206.209+444.544+206.209L476.722+206.209C477.862+206.209+478.791+207.136+478.791+208.272L478.791+208.272C478.791+209.409+477.862+210.335+476.722+210.335Z" opacity="1" fill="#000000"/>
<path d="M377.698+71.1095L351.263+71.1095C349.701+71.1095+348.392+69.8465+348.392+68.2467L348.392+68.2467C348.392+66.6889+349.658+65.3838+351.263+65.3838L377.698+65.3838C379.26+65.3838+380.569+66.6468+380.569+68.2467L380.569+68.2467C380.527+69.8465+379.26+71.1095+377.698+71.1095Z" opacity="0.58" fill="#ffffff"/>
<path d="M354.219+132.492L350.756+132.492C346.787+132.492+343.535+135.691+343.535+139.691L343.535+145.922L341.002+145.922L341.002+137.081C341.002+133.123+344.211+129.881+348.223+129.881L353.375+129.881L354.219+132.492Z" opacity="1" fill="#000000"/>
<path d="M387.79+54.3957L382.934+54.3957L382.934+54.3957L382.934+120.241L382.934+120.241L387.79+120.241L387.79+120.241L387.79+54.3957L387.79+54.3957Z" opacity="1" fill="#c4c4c4"/>
<path d="M537.91+74.3091L537.91+83.1923L534.997+84.2869L534.997+73.2145L537.91+74.3091Z" opacity="1" fill="#c4c4c4"/>
<path d="M519.414+79.319L485.801+79.319C483.056+79.319+480.86+77.1298+480.86+74.3933L480.86+74.3933C480.86+71.6568+483.056+69.4676+485.801+69.4676L519.414+69.4676C522.159+69.4676+524.355+71.6568+524.355+74.3933L524.355+74.3933C524.355+77.0877+522.117+79.319+519.414+79.319Z" opacity="0.53" fill="#ffffff"/>
</g>
</g>
</svg>
